<?xml version="1.0" encoding="utf-8"?>
<svg x="0pt" y="33.12pt" width="126pt" height="25.92pt" viewBox="0 33.12 126 25.92" xmlns="http://www.w3.org/2000/svg" xmlns:xlink="http://www.w3.org/1999/xlink">
  <g id="1">
    <title>Layer 1</title>
    <defs>
      <title>Path</title>
      <g id="2">
        <defs>
          <path id="3" d="M0,33.12 C0,33.12,126,33.12,126,33.12 C126,33.12,126,59.04,126,59.04 C126,59.04,0,59.04,0,59.04 C0,59.04,0,33.12,0,33.12 z"/>
        </defs>
        <use xlink:href="#3" style="fill:#032642;fill-opacity:1;fill-rule:evenodd;opacity:1;stroke:none;"/>
      </g>
    </defs>
    <use xlink:href="#2"/>
    <defs>
      <title>Shape 31</title>
      <g id="4">
        <defs>
          <path id="5" d="M121.748,54.4151 C121.54,54.5077,121.437,54.7684,121.562,54.9863 C121.787,55.3808,121.983,55.7693,121.744,56.2104 C121.453,56.747,120.731,56.9459,120.205,56.6368 C119.556,56.2554,119.636,55.5617,119.986,55.0005 C120.122,54.7817,120.02,54.5108,119.807,54.416 C118.949,54.4164,118.091,54.4168,117.232,54.4172 C117.232,54.4056,117.232,54.394,117.232,54.3824 C117.232,54.0772,117.232,53.772,117.232,53.4668 C117.232,52.9354,117.231,52.4039,117.231,51.8725 C117.15,51.6393,116.864,51.5208,116.635,51.6635 C116.074,52.0134,115.38,52.0932,114.999,51.4447 C114.69,50.9189,114.888,50.1972,115.425,49.9056 C115.866,49.666,116.254,49.8623,116.649,50.0875 C116.876,50.2172,117.149,50.0995,117.23,49.874 C117.23,49.874,117.229,47.3589,117.229,47.3589 C117.229,47.3589,119.638,47.3578,119.638,47.3578 C119.643,47.3578,119.647,47.357,119.652,47.3569 C119.703,47.3569,119.753,47.3568,119.804,47.3568 C120.017,47.4516,120.118,47.7225,119.982,47.9412 C119.633,48.5025,119.553,49.1963,120.202,49.5775 C120.728,49.8867,121.449,49.6877,121.741,49.1512 C121.98,48.71,121.784,48.3216,121.558,47.9271 C121.434,47.7092,121.537,47.4485,121.744,47.3559 C121.795,47.3559,121.845,47.3558,121.896,47.3558 C121.9,47.356,121.905,47.3567,121.91,47.3568 C122.702,47.3564,123.495,47.356,124.287,47.3556 C124.288,48.1801,124.288,49.0047,124.288,49.8292 C124.231,50.1091,123.96,50.2184,123.696,50.0754 C123.297,49.8588,122.943,49.666,122.502,49.9057 C121.966,50.1972,121.737,50.9068,122.046,51.4326 C122.428,52.0811,123.122,52.0012,123.683,51.6514 C123.923,51.5016,124.226,51.6394,124.289,51.8959 C124.29,52.3931,124.29,52.8903,124.29,53.3875 C124.29,53.718,124.29,54.0485,124.291,54.3791 C124.291,54.3907,124.291,54.4023,124.291,54.4139 C123.443,54.4143,122.595,54.4147,121.748,54.4151"/>
        </defs>
        <use xlink:href="#5" style="fill:#fdbf52;fill-opacity:1;fill-rule:nonzero;opacity:1;stroke:none;"/>
      </g>
    </defs>
    <use xlink:href="#4"/>
    <defs>
      <title>Text</title>
      <g id="6">
        <defs>
          <path id="7" d="M55.7369,53.8149 C55.7369,53.8149,55.7369,54.7649,55.7369,54.7649 C55.7369,54.7649,58.3469,54.7649,58.3469,54.7649 C58.3469,54.7649,58.3469,53.8149,58.3469,53.8149 z M56.5169,52.2149 C56.5169,52.2149,56.5169,58.4149,56.5169,58.4149 C56.5169,58.4149,57.5769,58.4149,57.5769,58.4149 C57.5769,58.4149,57.5769,52.2149,57.5769,52.2149 z M61.0869,58.5149 C61.6202,58.5149,62.0769,58.4099,62.4569,58.1999 C62.8369,57.9899,63.1502,57.6783,63.3969,57.2649 C63.3969,57.2649,62.4569,56.8949,62.4569,56.8949 C62.3169,57.1416,62.1369,57.3249,61.9169,57.4449 C61.6969,57.5649,61.4369,57.6249,61.1369,57.6249 C60.8569,57.6249,60.6202,57.5649,60.4269,57.4449 C60.2336,57.3249,60.0852,57.1483,59.9819,56.9149 C59.8786,56.6816,59.8302,56.4016,59.8369,56.0749 C59.8369,55.7416,59.8886,55.4616,59.9919,55.2349 C60.0952,55.0083,60.2419,54.8349,60.4319,54.7149 C60.6219,54.5949,60.8536,54.5349,61.1269,54.5349 C61.3536,54.5349,61.5519,54.5849,61.7219,54.6849 C61.8919,54.7849,62.0252,54.9249,62.1219,55.1049 C62.2186,55.2849,62.2669,55.4983,62.2669,55.7449 C62.2669,55.7916,62.2552,55.8483,62.2319,55.9149 C62.2086,55.9816,62.1869,56.0349,62.1669,56.0749 C62.1669,56.0749,62.4969,55.6149,62.4969,55.6149 C62.4969,55.6149,59.3869,55.6149,59.3869,55.6149 C59.3869,55.6149,59.3869,56.3649,59.3869,56.3649 C59.3869,56.3649,63.4269,56.3649,63.4269,56.3649 C63.4269,56.3383,63.4286,56.2949,63.4319,56.2349 C63.4352,56.1749,63.4369,56.1183,63.4369,56.0649 C63.4369,55.5716,63.3469,55.1499,63.1669,54.7999 C62.9869,54.4499,62.7252,54.1816,62.3819,53.9949 C62.0386,53.8083,61.6236,53.7149,61.1369,53.7149 C60.6502,53.7149,60.2269,53.8133,59.8669,54.0099 C59.5069,54.2066,59.2286,54.4849,59.0319,54.8449 C58.8352,55.2049,58.7369,55.6283,58.7369,56.1149 C58.7369,56.5949,58.8336,57.0149,59.0269,57.3749 C59.2202,57.7349,59.4952,58.0149,59.8519,58.2149 C60.2086,58.4149,60.6202,58.5149,61.0869,58.5149 z M65.1969,56.1149 C65.1969,55.8283,65.2602,55.5749,65.3869,55.3549 C65.5136,55.1349,65.6852,54.9616,65.9019,54.8349 C66.1186,54.7083,66.3602,54.6449,66.6269,54.6449 C66.8402,54.6449,67.0469,54.6783,67.2469,54.7449 C67.4469,54.8116,67.6252,54.9033,67.7819,55.0199 C67.9386,55.1366,68.0536,55.2716,68.1269,55.4249 C68.1269,55.4249,68.1269,54.2249,68.1269,54.2249 C67.9669,54.0716,67.7502,53.9483,67.4769,53.8549 C67.2036,53.7616,66.9036,53.7149,66.5769,53.7149 C66.1102,53.7149,65.6886,53.8166,65.3119,54.0199 C64.9352,54.2233,64.6369,54.5049,64.4169,54.8649 C64.1969,55.2249,64.0869,55.6416,64.0869,56.1149 C64.0869,56.5816,64.1969,56.9966,64.4169,57.3599 C64.6369,57.7233,64.9352,58.0066,65.3119,58.2099 C65.6886,58.4133,66.1102,58.5149,66.5769,58.5149 C66.9036,58.5149,67.2036,58.4683,67.4769,58.3749 C67.7502,58.2816,67.9669,58.1549,68.1269,57.9949 C68.1269,57.9949,68.1269,56.8049,68.1269,56.8049 C68.0536,56.9516,67.9402,57.0833,67.7869,57.1999 C67.6336,57.3166,67.4586,57.4099,67.2619,57.4799 C67.0652,57.5499,66.8536,57.5849,66.6269,57.5849 C66.3602,57.5849,66.1186,57.5216,65.9019,57.3949 C65.6852,57.2683,65.5136,57.0949,65.3869,56.8749 C65.2602,56.6549,65.1969,56.4016,65.1969,56.1149 z M70.4069,50.6149 C70.4069,50.6149,69.3169,50.6149,69.3169,50.6149 C69.3169,50.6149,69.3169,58.4149,69.3169,58.4149 C69.3169,58.4149,70.4069,58.4149,70.4069,58.4149 z M72.2769,55.6149 C72.2769,55.6149,72.2769,58.4149,72.2769,58.4149 C72.2769,58.4149,73.3669,58.4149,73.3669,58.4149 C73.3669,58.4149,73.3669,55.4649,73.3669,55.4649 C73.3669,55.0716,73.3069,54.7433,73.1869,54.4799 C73.0669,54.2166,72.8902,54.0183,72.6569,53.8849 C72.4236,53.7516,72.1336,53.6849,71.7869,53.6849 C71.4402,53.6849,71.1452,53.7699,70.9019,53.9399 C70.6586,54.1099,70.4719,54.3399,70.3419,54.6299 C70.2119,54.9199,70.1469,55.2483,70.1469,55.6149 C70.1469,55.6149,70.4069,55.6149,70.4069,55.6149 C70.4069,55.4083,70.4486,55.2283,70.5319,55.0749 C70.6152,54.9216,70.7336,54.8016,70.8869,54.7149 C71.0402,54.6283,71.2202,54.5849,71.4269,54.5849 C71.7202,54.5849,71.9352,54.6716,72.0719,54.8449 C72.2086,55.0183,72.2769,55.2749,72.2769,55.6149 z M77.9569,56.8949 C77.9569,56.8949,77.3269,57.5349,77.3269,57.5349 C77.4602,57.7083,77.6269,57.8733,77.8269,58.0299 C78.0269,58.1866,78.2569,58.3133,78.5169,58.4099 C78.7769,58.5066,79.0669,58.5549,79.3869,58.5549 C79.8869,58.5549,80.2852,58.4233,80.5819,58.1599 C80.8786,57.8966,81.0269,57.5483,81.0269,57.1149 C81.0269,56.8349,80.9636,56.6083,80.8369,56.4349 C80.7102,56.2616,80.5402,56.1149,80.3269,55.9949 C80.1136,55.8749,79.8769,55.7649,79.6169,55.6649 C79.4302,55.5916,79.2619,55.5216,79.1119,55.4549 C78.9619,55.3883,78.8419,55.3133,78.7519,55.2299 C78.6619,55.1466,78.6169,55.0516,78.6169,54.9449 C78.6169,54.8183,78.6669,54.7216,78.7669,54.6549 C78.8669,54.5883,78.9969,54.5549,79.1569,54.5549 C79.3836,54.5549,79.6036,54.6116,79.8169,54.7249 C80.0302,54.8383,80.2102,54.9849,80.3569,55.1649 C80.3569,55.1649,80.9569,54.5249,80.9569,54.5249 C80.8302,54.3716,80.6769,54.2349,80.4969,54.1149 C80.3169,53.9949,80.1152,53.8983,79.8919,53.8249 C79.6686,53.7516,79.4302,53.7149,79.1769,53.7149 C78.8969,53.7149,78.6352,53.7599,78.3919,53.8499 C78.1486,53.9399,77.9552,54.0783,77.8119,54.2649 C77.6686,54.4516,77.5969,54.6849,77.5969,54.9649 C77.5969,55.2383,77.6619,55.4649,77.7919,55.6449 C77.9219,55.8249,78.0886,55.9699,78.2919,56.0799 C78.4952,56.1899,78.7002,56.2849,78.9069,56.3649 C79.1136,56.4383,79.2936,56.5099,79.4469,56.5799 C79.6002,56.6499,79.7202,56.7333,79.8069,56.8299 C79.8936,56.9266,79.9369,57.0416,79.9369,57.1749 C79.9369,57.3283,79.8819,57.4483,79.7719,57.5349 C79.6619,57.6216,79.5102,57.6649,79.3169,57.6649 C79.1636,57.6649,79.0102,57.6349,78.8569,57.5749 C78.7036,57.5149,78.5536,57.4283,78.4069,57.3149 C78.2602,57.2016,78.1102,57.0616,77.9569,56.8949 z M81.6369,56.1149 C81.6369,56.5816,81.7452,56.9966,81.9619,57.3599 C82.1786,57.7233,82.4752,58.0066,82.8519,58.2099 C83.2286,58.4133,83.6502,58.5149,84.1169,58.5149 C84.5902,58.5149,85.0136,58.4133,85.3869,58.2099 C85.7602,58.0066,86.0552,57.7233,86.2719,57.3599 C86.4886,56.9966,86.5969,56.5816,86.5969,56.1149 C86.5969,55.6416,86.4886,55.2249,86.2719,54.8649 C86.0552,54.5049,85.7602,54.2233,85.3869,54.0199 C85.0136,53.8166,84.5902,53.7149,84.1169,53.7149 C83.6502,53.7149,83.2286,53.8166,82.8519,54.0199 C82.4752,54.2233,82.1786,54.5049,81.9619,54.8649 C81.7452,55.2249,81.6369,55.6416,81.6369,56.1149 z M82.7469,56.1149 C82.7469,55.8283,82.8069,55.5749,82.9269,55.3549 C83.0469,55.1349,83.2102,54.9649,83.4169,54.8449 C83.6236,54.7249,83.8569,54.6649,84.1169,54.6649 C84.3769,54.6649,84.6102,54.7249,84.8169,54.8449 C85.0236,54.9649,85.1869,55.1349,85.3069,55.3549 C85.4269,55.5749,85.4869,55.8283,85.4869,56.1149 C85.4869,56.4016,85.4269,56.6533,85.3069,56.8699 C85.1869,57.0866,85.0236,57.2566,84.8169,57.3799 C84.6102,57.5033,84.3769,57.5649,84.1169,57.5649 C83.8569,57.5649,83.6236,57.5033,83.4169,57.3799 C83.2102,57.2566,83.0469,57.0866,82.9269,56.8699 C82.8069,56.6533,82.7469,56.4016,82.7469,56.1149 z M87.6269,50.6149 C87.6269,50.6149,87.6269,58.4149,87.6269,58.4149 C87.6269,58.4149,88.7169,58.4149,88.7169,58.4149 C88.7169,58.4149,88.7169,50.6149,88.7169,50.6149 z M91.1969,56.6149 C91.1969,56.6149,91.1969,53.8149,91.1969,53.8149 C91.1969,53.8149,90.0869,53.8149,90.0869,53.8149 C90.0869,53.8149,90.0869,56.7349,90.0869,56.7349 C90.0869,57.2816,90.2252,57.7149,90.5019,58.0349 C90.7786,58.3549,91.1736,58.5149,91.6869,58.5149 C92.0069,58.5149,92.2819,58.4466,92.5119,58.3099 C92.7419,58.1733,92.9302,57.9716,93.0769,57.7049 C93.0769,57.7049,93.0769,58.4149,93.0769,58.4149 C93.0769,58.4149,94.1569,58.4149,94.1569,58.4149 C94.1569,58.4149,94.1569,53.8149,94.1569,53.8149 C94.1569,53.8149,93.0769,53.8149,93.0769,53.8149 C93.0769,53.8149,93.0769,56.6149,93.0769,56.6149 C93.0769,56.8216,93.0336,57.0016,92.9469,57.1549 C92.8602,57.3083,92.7402,57.4283,92.5869,57.5149 C92.4336,57.6016,92.2569,57.6449,92.0569,57.6449 C91.7636,57.6449,91.5469,57.5549,91.4069,57.3749 C91.2669,57.1949,91.1969,56.9416,91.1969,56.6149 z M94.8969,53.8149 C94.8969,53.8149,94.8969,54.7649,94.8969,54.7649 C94.8969,54.7649,97.5069,54.7649,97.5069,54.7649 C97.5069,54.7649,97.5069,53.8149,97.5069,53.8149 z M95.6769,52.2149 C95.6769,52.2149,95.6769,58.4149,95.6769,58.4149 C95.6769,58.4149,96.7369,58.4149,96.7369,58.4149 C96.7369,58.4149,96.7369,52.2149,96.7369,52.2149 z M98.2069,51.9849 C98.2069,52.1649,98.2752,52.3199,98.4119,52.4499 C98.5486,52.5799,98.7069,52.6449,98.8869,52.6449 C99.0802,52.6449,99.2436,52.5799,99.3769,52.4499 C99.5102,52.3199,99.5769,52.1649,99.5769,51.9849 C99.5769,51.7983,99.5102,51.6416,99.3769,51.5149 C99.2436,51.3883,99.0802,51.3249,98.8869,51.3249 C98.7069,51.3249,98.5486,51.3883,98.4119,51.5149 C98.2752,51.6416,98.2069,51.7983,98.2069,51.9849 z M98.3569,53.8149 C98.3569,53.8149,98.3569,58.4149,98.3569,58.4149 C98.3569,58.4149,99.4269,58.4149,99.4269,58.4149 C99.4269,58.4149,99.4269,53.8149,99.4269,53.8149 z M100.567,56.1149 C100.567,56.5816,100.675,56.9966,100.892,57.3599 C101.109,57.7233,101.405,58.0066,101.782,58.2099 C102.159,58.4133,102.58,58.5149,103.047,58.5149 C103.52,58.5149,103.944,58.4133,104.317,58.2099 C104.69,58.0066,104.985,57.7233,105.202,57.3599 C105.419,56.9966,105.527,56.5816,105.527,56.1149 C105.527,55.6416,105.419,55.2249,105.202,54.8649 C104.985,54.5049,104.69,54.2233,104.317,54.0199 C103.944,53.8166,103.52,53.7149,103.047,53.7149 C102.58,53.7149,102.159,53.8166,101.782,54.0199 C101.405,54.2233,101.109,54.5049,100.892,54.8649 C100.675,55.2249,100.567,55.6416,100.567,56.1149 z M101.677,56.1149 C101.677,55.8283,101.737,55.5749,101.857,55.3549 C101.977,55.1349,102.14,54.9649,102.347,54.8449 C102.554,54.7249,102.787,54.6649,103.047,54.6649 C103.307,54.6649,103.54,54.7249,103.747,54.8449 C103.954,54.9649,104.117,55.1349,104.237,55.3549 C104.357,55.5749,104.417,55.8283,104.417,56.1149 C104.417,56.4016,104.357,56.6533,104.237,56.8699 C104.117,57.0866,103.954,57.2566,103.747,57.3799 C103.54,57.5033,103.307,57.5649,103.047,57.5649 C102.787,57.5649,102.554,57.5033,102.347,57.3799 C102.14,57.2566,101.977,57.0866,101.857,56.8699 C101.737,56.6533,101.677,56.4016,101.677,56.1149 z M109.517,55.6149 C109.517,55.6149,109.517,58.4149,109.517,58.4149 C109.517,58.4149,110.627,58.4149,110.627,58.4149 C110.627,58.4149,110.627,55.4849,110.627,55.4849 C110.627,54.9383,110.49,54.5066,110.217,54.1899 C109.944,53.8733,109.547,53.7149,109.027,53.7149 C108.714,53.7149,108.442,53.7816,108.212,53.9149 C107.982,54.0483,107.794,54.2516,107.647,54.5249 C107.647,54.5249,107.647,53.8149,107.647,53.8149 C107.647,53.8149,106.557,53.8149,106.557,53.8149 C106.557,53.8149,106.557,58.4149,106.557,58.4149 C106.557,58.4149,107.647,58.4149,107.647,58.4149 C107.647,58.4149,107.647,55.6149,107.647,55.6149 C107.647,55.4083,107.689,55.2266,107.772,55.0699 C107.855,54.9133,107.974,54.7933,108.127,54.7099 C108.28,54.6266,108.46,54.5849,108.667,54.5849 C108.954,54.5849,109.167,54.6716,109.307,54.8449 C109.447,55.0183,109.517,55.2749,109.517,55.6149 z M112.217,56.8949 C112.217,56.8949,111.587,57.5349,111.587,57.5349 C111.72,57.7083,111.887,57.8733,112.087,58.0299 C112.287,58.1866,112.517,58.3133,112.777,58.4099 C113.037,58.5066,113.327,58.5549,113.647,58.5549 C114.147,58.5549,114.545,58.4233,114.842,58.1599 C115.139,57.8966,115.287,57.5483,115.287,57.1149 C115.287,56.8349,115.224,56.6083,115.097,56.4349 C114.97,56.2616,114.8,56.1149,114.587,55.9949 C114.374,55.8749,114.137,55.7649,113.877,55.6649 C113.69,55.5916,113.522,55.5216,113.372,55.4549 C113.222,55.3883,113.102,55.3133,113.012,55.2299 C112.922,55.1466,112.877,55.0516,112.877,54.9449 C112.877,54.8183,112.927,54.7216,113.027,54.6549 C113.127,54.5883,113.257,54.5549,113.417,54.5549 C113.644,54.5549,113.864,54.6116,114.077,54.7249 C114.29,54.8383,114.47,54.9849,114.617,55.1649 C114.617,55.1649,115.217,54.5249,115.217,54.5249 C115.09,54.3716,114.937,54.2349,114.757,54.1149 C114.577,53.9949,114.375,53.8983,114.152,53.8249 C113.929,53.7516,113.69,53.7149,113.437,53.7149 C113.157,53.7149,112.895,53.7599,112.652,53.8499 C112.409,53.9399,112.215,54.0783,112.072,54.2649 C111.929,54.4516,111.857,54.6849,111.857,54.9649 C111.857,55.2383,111.922,55.4649,112.052,55.6449 C112.182,55.8249,112.349,55.9699,112.552,56.0799 C112.755,56.1899,112.96,56.2849,113.167,56.3649 C113.374,56.4383,113.554,56.5099,113.707,56.5799 C113.86,56.6499,113.98,56.7333,114.067,56.8299 C114.154,56.9266,114.197,57.0416,114.197,57.1749 C114.197,57.3283,114.142,57.4483,114.032,57.5349 C113.922,57.6216,113.77,57.6649,113.577,57.6649 C113.424,57.6649,113.27,57.6349,113.117,57.5749 C112.964,57.5149,112.814,57.4283,112.667,57.3149 C112.52,57.2016,112.37,57.0616,112.217,56.8949 z"/>
        </defs>
        <use xlink:href="#7" style="fill:#ffbb41;fill-opacity:1;fill-rule:nonzero;opacity:1;stroke:none;"/>
      </g>
    </defs>
    <use xlink:href="#6"/>
    <defs>
      <title>Text</title>
      <g id="8">
        <defs>
          <path id="9" d="M15.1812,41.622 C15.1812,41.622,17.3592,41.622,17.3592,41.622 C18.1632,41.622,18.8652,41.508,19.4652,41.28 C20.0652,41.052,20.5362,40.719,20.8782,40.281 C21.2202,39.843,21.3912,39.312,21.3912,38.688 C21.3912,37.968,21.2202,37.374,20.8782,36.906 C20.5362,36.438,20.0652,36.09,19.4652,35.862 C18.8652,35.634,18.1632,35.52,17.3592,35.52 C17.3592,35.52,13.5612,35.52,13.5612,35.52 C13.5612,35.52,13.5612,48.12,13.5612,48.12 C13.5612,48.12,17.5752,48.12,17.5752,48.12 C18.4752,48.12,19.2642,47.991,19.9422,47.733 C20.6202,47.475,21.1512,47.076,21.5352,46.536 C21.9192,45.996,22.1112,45.312,22.1112,44.484 C22.1112,43.884,21.9912,43.368,21.7512,42.936 C21.5112,42.504,21.1812,42.15,20.7612,41.874 C20.3412,41.598,19.8582,41.391,19.3122,41.253 C18.7662,41.115,18.1872,41.046,17.5752,41.046 C17.5752,41.046,15.1812,41.046,15.1812,41.046 C15.1812,41.046,15.1812,42.234,15.1812,42.234 C15.1812,42.234,17.4492,42.234,17.4492,42.234 C17.8092,42.234,18.1392,42.273,18.4392,42.351 C18.7392,42.429,19.0032,42.555,19.2312,42.729 C19.4592,42.903,19.6332,43.116,19.7532,43.368 C19.8732,43.62,19.9332,43.92,19.9332,44.268 C19.9332,44.736,19.8252,45.123,19.6092,45.429 C19.3932,45.735,19.0992,45.966,18.7272,46.122 C18.3552,46.278,17.9292,46.356,17.4492,46.356 C17.4492,46.356,15.6852,46.356,15.6852,46.356 C15.6852,46.356,15.6852,37.266,15.6852,37.266 C15.6852,37.266,17.2152,37.266,17.2152,37.266 C17.8152,37.266,18.2982,37.41,18.6642,37.698 C19.0302,37.986,19.2132,38.394,19.2132,38.922 C19.2132,39.27,19.1292,39.567,18.9612,39.813 C18.7932,40.059,18.5592,40.248,18.2592,40.38 C17.9592,40.512,17.6112,40.578,17.2152,40.578 C17.2152,40.578,15.1812,40.578,15.1812,40.578 z M27.8172,48.3 C28.7772,48.3,29.5992,48.111,30.2832,47.733 C30.9672,47.355,31.5312,46.794,31.9752,46.05 C31.9752,46.05,30.2832,45.384,30.2832,45.384 C30.0312,45.828,29.7072,46.158,29.3112,46.374 C28.9152,46.59,28.4472,46.698,27.9072,46.698 C27.4032,46.698,26.9772,46.59,26.6292,46.374 C26.2812,46.158,26.0142,45.84,25.8282,45.42 C25.6422,45,25.5552,44.496,25.5672,43.908 C25.5672,43.308,25.6602,42.804,25.8462,42.396 C26.0322,41.988,26.2962,41.676,26.6382,41.46 C26.9802,41.244,27.3972,41.136,27.8892,41.136 C28.2972,41.136,28.6542,41.226,28.9602,41.406 C29.2662,41.586,29.5062,41.838,29.6802,42.162 C29.8542,42.486,29.9412,42.87,29.9412,43.314 C29.9412,43.398,29.9202,43.5,29.8782,43.62 C29.8362,43.74,29.7972,43.836,29.7612,43.908 C29.7612,43.908,30.3552,43.08,30.3552,43.08 C30.3552,43.08,24.7572,43.08,24.7572,43.08 C24.7572,43.08,24.7572,44.43,24.7572,44.43 C24.7572,44.43,32.0292,44.43,32.0292,44.43 C32.0292,44.382,32.0322,44.304,32.0382,44.196 C32.0442,44.088,32.0472,43.986,32.0472,43.89 C32.0472,43.002,31.8852,42.243,31.5612,41.613 C31.2372,40.983,30.7662,40.5,30.1482,40.164 C29.5302,39.828,28.7832,39.66,27.9072,39.66 C27.0312,39.66,26.2692,39.837,25.6212,40.191 C24.9732,40.545,24.4722,41.046,24.1182,41.694 C23.7642,42.342,23.5872,43.104,23.5872,43.98 C23.5872,44.844,23.7612,45.6,24.1092,46.248 C24.4572,46.896,24.9522,47.4,25.5942,47.76 C26.2362,48.12,26.9772,48.3,27.8172,48.3 z M35.8452,39.84 C35.8452,39.84,33.9192,39.84,33.9192,39.84 C33.9192,39.84,33.9192,48.12,33.9192,48.12 C33.9192,48.12,35.8452,48.12,35.8452,48.12 z M38.3112,41.91 C38.3112,41.91,39.2652,40.272,39.2652,40.272 C39.0732,40.044,38.8452,39.882,38.5812,39.786 C38.3172,39.69,38.0352,39.642,37.7352,39.642 C37.3152,39.642,36.9102,39.795,36.5202,40.101 C36.1302,40.407,35.8122,40.815,35.5662,41.325 C35.3202,41.835,35.1972,42.42,35.1972,43.08 C35.1972,43.08,35.8452,43.458,35.8452,43.458 C35.8452,43.062,35.8902,42.717,35.9802,42.423 C36.0702,42.129,36.2172,41.898,36.4212,41.73 C36.6252,41.562,36.8892,41.478,37.2132,41.478 C37.4532,41.478,37.6542,41.514,37.8162,41.586 C37.9782,41.658,38.1432,41.766,38.3112,41.91 z M39.4452,39.84 C39.4452,39.84,39.4452,41.55,39.4452,41.55 C39.4452,41.55,44.1432,41.55,44.1432,41.55 C44.1432,41.55,44.1432,39.84,44.1432,39.84 z M40.8492,36.96 C40.8492,36.96,40.8492,48.12,40.8492,48.12 C40.8492,48.12,42.7572,48.12,42.7572,48.12 C42.7572,48.12,42.7572,36.96,42.7572,36.96 z M49.3272,41.64 C49.3272,41.64,44.5032,48.12,44.5032,48.12 C44.5032,48.12,52.2432,48.12,52.2432,48.12 C52.2432,48.12,52.2432,46.32,52.2432,46.32 C52.2432,46.32,47.9592,46.32,47.9592,46.32 C47.9592,46.32,52.6932,39.84,52.6932,39.84 C52.6932,39.84,45.1332,39.84,45.1332,39.84 C45.1332,39.84,45.1332,41.64,45.1332,41.64 z M61.3872,41.622 C61.3872,41.622,63.5652,41.622,63.5652,41.622 C64.3692,41.622,65.0712,41.508,65.6712,41.28 C66.2712,41.052,66.7422,40.719,67.0842,40.281 C67.4262,39.843,67.5972,39.312,67.5972,38.688 C67.5972,37.968,67.4262,37.374,67.0842,36.906 C66.7422,36.438,66.2712,36.09,65.6712,35.862 C65.0712,35.634,64.3692,35.52,63.5652,35.52 C63.5652,35.52,59.7672,35.52,59.7672,35.52 C59.7672,35.52,59.7672,48.12,59.7672,48.12 C59.7672,48.12,63.7812,48.12,63.7812,48.12 C64.6812,48.12,65.4702,47.991,66.1482,47.733 C66.8262,47.475,67.3572,47.076,67.7412,46.536 C68.1252,45.996,68.3172,45.312,68.3172,44.484 C68.3172,43.884,68.1972,43.368,67.9572,42.936 C67.7172,42.504,67.3872,42.15,66.9672,41.874 C66.5472,41.598,66.0642,41.391,65.5182,41.253 C64.9722,41.115,64.3932,41.046,63.7812,41.046 C63.7812,41.046,61.3872,41.046,61.3872,41.046 C61.3872,41.046,61.3872,42.234,61.3872,42.234 C61.3872,42.234,63.6552,42.234,63.6552,42.234 C64.0152,42.234,64.3452,42.273,64.6452,42.351 C64.9452,42.429,65.2092,42.555,65.4372,42.729 C65.6652,42.903,65.8392,43.116,65.9592,43.368 C66.0792,43.62,66.1392,43.92,66.1392,44.268 C66.1392,44.736,66.0312,45.123,65.8152,45.429 C65.5992,45.735,65.3052,45.966,64.9332,46.122 C64.5612,46.278,64.1352,46.356,63.6552,46.356 C63.6552,46.356,61.8912,46.356,61.8912,46.356 C61.8912,46.356,61.8912,37.266,61.8912,37.266 C61.8912,37.266,63.4212,37.266,63.4212,37.266 C64.0212,37.266,64.5042,37.41,64.8702,37.698 C65.2362,37.986,65.4192,38.394,65.4192,38.922 C65.4192,39.27,65.3352,39.567,65.1672,39.813 C64.9992,40.059,64.7652,40.248,64.4652,40.38 C64.1652,40.512,63.8172,40.578,63.4212,40.578 C63.4212,40.578,61.3872,40.578,61.3872,40.578 z M70.3512,36.546 C70.3512,36.87,70.4742,37.149,70.7202,37.383 C70.9662,37.617,71.2512,37.734,71.5752,37.734 C71.9232,37.734,72.2172,37.617,72.4572,37.383 C72.6972,37.149,72.8172,36.87,72.8172,36.546 C72.8172,36.21,72.6972,35.928,72.4572,35.7 C72.2172,35.472,71.9232,35.358,71.5752,35.358 C71.2512,35.358,70.9662,35.472,70.7202,35.7 C70.4742,35.928,70.3512,36.21,70.3512,36.546 z M70.6212,39.84 C70.6212,39.84,70.6212,48.12,70.6212,48.12 C70.6212,48.12,72.5472,48.12,72.5472,48.12 C72.5472,48.12,72.5472,39.84,72.5472,39.84 z M79.0812,41.64 C79.0812,41.64,74.2572,48.12,74.2572,48.12 C74.2572,48.12,81.9972,48.12,81.9972,48.12 C81.9972,48.12,81.9972,46.32,81.9972,46.32 C81.9972,46.32,77.7132,46.32,77.7132,46.32 C77.7132,46.32,82.4472,39.84,82.4472,39.84 C82.4472,39.84,74.8872,39.84,74.8872,39.84 C74.8872,39.84,74.8872,41.64,74.8872,41.64 z M89.2872,43.08 C89.2872,43.08,89.2872,48.12,89.2872,48.12 C89.2872,48.12,91.2852,48.12,91.2852,48.12 C91.2852,48.12,91.2852,42.846,91.2852,42.846 C91.2852,41.862,91.0392,41.085,90.5472,40.515 C90.0552,39.945,89.3412,39.66,88.4052,39.66 C87.8412,39.66,87.3522,39.78,86.9382,40.02 C86.5242,40.26,86.1852,40.626,85.9212,41.118 C85.9212,41.118,85.9212,39.84,85.9212,39.84 C85.9212,39.84,83.9592,39.84,83.9592,39.84 C83.9592,39.84,83.9592,48.12,83.9592,48.12 C83.9592,48.12,85.9212,48.12,85.9212,48.12 C85.9212,48.12,85.9212,43.08,85.9212,43.08 C85.9212,42.708,85.9962,42.381,86.1462,42.099 C86.2962,41.817,86.5092,41.601,86.7852,41.451 C87.0612,41.301,87.3852,41.226,87.7572,41.226 C88.2732,41.226,88.6572,41.382,88.9092,41.694 C89.1612,42.006,89.2872,42.468,89.2872,43.08 z M97.3692,48.3 C98.3292,48.3,99.1512,48.111,99.8352,47.733 C100.519,47.355,101.083,46.794,101.527,46.05 C101.527,46.05,99.8352,45.384,99.8352,45.384 C99.5832,45.828,99.2592,46.158,98.8632,46.374 C98.4672,46.59,97.9992,46.698,97.4592,46.698 C96.9552,46.698,96.5292,46.59,96.1812,46.374 C95.8332,46.158,95.5662,45.84,95.3802,45.42 C95.1942,45,95.1072,44.496,95.1192,43.908 C95.1192,43.308,95.2122,42.804,95.3982,42.396 C95.5842,41.988,95.8482,41.676,96.1902,41.46 C96.5322,41.244,96.9492,41.136,97.4412,41.136 C97.8492,41.136,98.2062,41.226,98.5122,41.406 C98.8182,41.586,99.0582,41.838,99.2322,42.162 C99.4062,42.486,99.4932,42.87,99.4932,43.314 C99.4932,43.398,99.4722,43.5,99.4302,43.62 C99.3882,43.74,99.3492,43.836,99.3132,43.908 C99.3132,43.908,99.9072,43.08,99.9072,43.08 C99.9072,43.08,94.3092,43.08,94.3092,43.08 C94.3092,43.08,94.3092,44.43,94.3092,44.43 C94.3092,44.43,101.581,44.43,101.581,44.43 C101.581,44.382,101.584,44.304,101.59,44.196 C101.596,44.088,101.599,43.986,101.599,43.89 C101.599,43.002,101.437,42.243,101.113,41.613 C100.789,40.983,100.318,40.5,99.7002,40.164 C99.0822,39.828,98.3352,39.66,97.4592,39.66 C96.5832,39.66,95.8212,39.837,95.1732,40.191 C94.5252,40.545,94.0242,41.046,93.6702,41.694 C93.3162,42.342,93.1392,43.104,93.1392,43.98 C93.1392,44.844,93.3132,45.6,93.6612,46.248 C94.0092,46.896,94.5042,47.4,95.1462,47.76 C95.7882,48.12,96.5292,48.3,97.3692,48.3 z M103.849,45.384 C103.849,45.384,102.715,46.536,102.715,46.536 C102.955,46.848,103.255,47.145,103.615,47.427 C103.975,47.709,104.389,47.937,104.857,48.111 C105.325,48.285,105.847,48.372,106.423,48.372 C107.323,48.372,108.04,48.135,108.574,47.661 C109.108,47.187,109.375,46.56,109.375,45.78 C109.375,45.276,109.261,44.868,109.033,44.556 C108.805,44.244,108.499,43.98,108.115,43.764 C107.731,43.548,107.305,43.35,106.837,43.17 C106.501,43.038,106.198,42.912,105.928,42.792 C105.658,42.672,105.442,42.537,105.28,42.387 C105.118,42.237,105.037,42.066,105.037,41.874 C105.037,41.646,105.127,41.472,105.307,41.352 C105.487,41.232,105.721,41.172,106.009,41.172 C106.417,41.172,106.813,41.274,107.197,41.478 C107.581,41.682,107.905,41.946,108.169,42.27 C108.169,42.27,109.249,41.118,109.249,41.118 C109.021,40.842,108.745,40.596,108.421,40.38 C108.097,40.164,107.734,39.99,107.332,39.858 C106.93,39.726,106.501,39.66,106.045,39.66 C105.541,39.66,105.07,39.741,104.632,39.903 C104.194,40.065,103.846,40.314,103.588,40.65 C103.33,40.986,103.201,41.406,103.201,41.91 C103.201,42.402,103.318,42.81,103.552,43.134 C103.786,43.458,104.086,43.719,104.452,43.917 C104.818,44.115,105.187,44.286,105.559,44.43 C105.931,44.562,106.255,44.691,106.531,44.817 C106.807,44.943,107.023,45.093,107.179,45.267 C107.335,45.441,107.413,45.648,107.413,45.888 C107.413,46.164,107.314,46.38,107.116,46.536 C106.918,46.692,106.645,46.77,106.297,46.77 C106.021,46.77,105.745,46.716,105.469,46.608 C105.193,46.5,104.923,46.344,104.659,46.14 C104.395,45.936,104.125,45.684,103.849,45.384 z M111.481,45.384 C111.481,45.384,110.347,46.536,110.347,46.536 C110.587,46.848,110.887,47.145,111.247,47.427 C111.607,47.709,112.021,47.937,112.489,48.111 C112.957,48.285,113.479,48.372,114.055,48.372 C114.955,48.372,115.672,48.135,116.206,47.661 C116.74,47.187,117.007,46.56,117.007,45.78 C117.007,45.276,116.893,44.868,116.665,44.556 C116.437,44.244,116.131,43.98,115.747,43.764 C115.363,43.548,114.937,43.35,114.469,43.17 C114.133,43.038,113.83,42.912,113.56,42.792 C113.29,42.672,113.074,42.537,112.912,42.387 C112.75,42.237,112.669,42.066,112.669,41.874 C112.669,41.646,112.759,41.472,112.939,41.352 C113.119,41.232,113.353,41.172,113.641,41.172 C114.049,41.172,114.445,41.274,114.829,41.478 C115.213,41.682,115.537,41.946,115.801,42.27 C115.801,42.27,116.881,41.118,116.881,41.118 C116.653,40.842,116.377,40.596,116.053,40.38 C115.729,40.164,115.366,39.99,114.964,39.858 C114.562,39.726,114.133,39.66,113.677,39.66 C113.173,39.66,112.702,39.741,112.264,39.903 C111.826,40.065,111.478,40.314,111.22,40.65 C110.962,40.986,110.833,41.406,110.833,41.91 C110.833,42.402,110.95,42.81,111.184,43.134 C111.418,43.458,111.718,43.719,112.084,43.917 C112.45,44.115,112.819,44.286,113.191,44.43 C113.563,44.562,113.887,44.691,114.163,44.817 C114.439,44.943,114.655,45.093,114.811,45.267 C114.967,45.441,115.045,45.648,115.045,45.888 C115.045,46.164,114.946,46.38,114.748,46.536 C114.55,46.692,114.277,46.77,113.929,46.77 C113.653,46.77,113.377,46.716,113.101,46.608 C112.825,46.5,112.555,46.344,112.291,46.14 C112.027,45.936,111.757,45.684,111.481,45.384 z"/>
        </defs>
        <use xlink:href="#9" style="fill:#ffffff;fill-opacity:1;fill-rule:nonzero;opacity:1;stroke:none;"/>
      </g>
    </defs>
    <use xlink:href="#8"/>
    <defs>
      <title>Text</title>
      <g id="10">
        <defs>
          <path id="11" d="M9.19741,34.08 C9.19741,34.08,1.70941,49.38,1.70941,49.38 C1.70941,49.38,3.67141,49.38,3.67141,49.38 C3.67141,49.38,11.1234,34.08,11.1234,34.08 z"/>
        </defs>
        <use xlink:href="#11" style="fill:#ffffff;fill-opacity:1;fill-rule:nonzero;opacity:1;stroke:none;"/>
      </g>
    </defs>
    <use xlink:href="#10"/>
  </g>
  <g id="12">
    <title>Layer 2</title>
  </g>
</svg>
