<?xml version="1.0" encoding="utf-8"?>
<svg x="136pt" y="0pt" width="126pt" height="25.92pt" viewBox="136 0 126 25.92" xmlns="http://www.w3.org/2000/svg" xmlns:xlink="http://www.w3.org/1999/xlink">
  <g id="1">
    <title>Layer 1</title>
    <defs>
      <title>Shape 31</title>
      <g id="2">
        <defs>
          <path id="3" d="M257.748,21.2951 C257.54,21.3877,257.437,21.6484,257.562,21.8663 C257.787,22.2608,257.983,22.6493,257.744,23.0904 C257.453,23.627,256.731,23.8259,256.205,23.5168 C255.556,23.1354,255.636,22.4417,255.986,21.8805 C256.122,21.6617,256.02,21.3908,255.807,21.296 C254.949,21.2964,254.091,21.2968,253.232,21.2972 C253.232,21.2856,253.232,21.274,253.232,21.2624 C253.232,20.9572,253.232,20.652,253.232,20.3468 C253.232,19.8154,253.231,19.2839,253.231,18.7525 C253.15,18.5193,252.864,18.4009,252.635,18.5436 C252.074,18.8934,251.38,18.9732,250.999,18.3247 C250.69,17.7989,250.888,17.0772,251.425,16.7856 C251.866,16.546,252.254,16.7423,252.649,16.9675 C252.876,17.0972,253.149,16.9795,253.23,16.754 C253.23,16.754,253.229,14.2389,253.229,14.2389 C253.229,14.2389,255.638,14.2378,255.638,14.2378 C255.643,14.2378,255.647,14.237,255.652,14.2369 C255.703,14.2369,255.753,14.2368,255.804,14.2368 C256.017,14.3316,256.118,14.6025,255.982,14.8212 C255.633,15.3825,255.553,16.0763,256.202,16.4575 C256.728,16.7667,257.449,16.5678,257.741,16.0312 C257.98,15.59,257.784,15.2016,257.558,14.8071 C257.434,14.5892,257.537,14.3285,257.744,14.2359 C257.795,14.2359,257.845,14.2358,257.896,14.2358 C257.9,14.236,257.905,14.2367,257.91,14.2368 C258.702,14.2364,259.495,14.236,260.287,14.2356 C260.288,15.0602,260.288,15.8847,260.289,16.7092 C260.231,16.9891,259.96,17.0984,259.696,16.9554 C259.297,16.7388,258.943,16.546,258.502,16.7857 C257.966,17.0772,257.737,17.7868,258.046,18.3126 C258.428,18.9611,259.122,18.8812,259.683,18.5314 C259.923,18.3816,260.226,18.5194,260.289,18.7759 C260.29,19.2731,260.29,19.7703,260.29,20.2675 C260.29,20.598,260.29,20.9285,260.291,21.2591 C260.291,21.2707,260.291,21.2823,260.291,21.2939 C259.443,21.2943,258.595,21.2947,257.748,21.2951"/>
        </defs>
        <use xlink:href="#3" style="fill:#fdbf52;fill-opacity:1;fill-rule:nonzero;opacity:1;stroke:none;"/>
      </g>
    </defs>
    <use xlink:href="#2"/>
    <defs>
      <title>Text</title>
      <g id="4">
        <defs>
          <path id="5" d="M191.737,20.6949 C191.737,20.6949,191.737,21.6449,191.737,21.6449 C191.737,21.6449,194.347,21.6449,194.347,21.6449 C194.347,21.6449,194.347,20.6949,194.347,20.6949 z M192.517,19.0949 C192.517,19.0949,192.517,25.2949,192.517,25.2949 C192.517,25.2949,193.577,25.2949,193.577,25.2949 C193.577,25.2949,193.577,19.0949,193.577,19.0949 z M197.087,25.3949 C197.62,25.3949,198.077,25.2899,198.457,25.0799 C198.837,24.8699,199.15,24.5583,199.397,24.1449 C199.397,24.1449,198.457,23.7749,198.457,23.7749 C198.317,24.0216,198.137,24.2049,197.917,24.3249 C197.697,24.4449,197.437,24.5049,197.137,24.5049 C196.857,24.5049,196.62,24.4449,196.427,24.3249 C196.234,24.2049,196.085,24.0283,195.982,23.7949 C195.879,23.5616,195.83,23.2816,195.837,22.9549 C195.837,22.6216,195.889,22.3416,195.992,22.1149 C196.095,21.8883,196.242,21.7149,196.432,21.5949 C196.622,21.4749,196.854,21.4149,197.127,21.4149 C197.354,21.4149,197.552,21.4649,197.722,21.5649 C197.892,21.6649,198.025,21.8049,198.122,21.9849 C198.219,22.1649,198.267,22.3783,198.267,22.6249 C198.267,22.6716,198.255,22.7283,198.232,22.7949 C198.209,22.8616,198.187,22.9149,198.167,22.9549 C198.167,22.9549,198.497,22.4949,198.497,22.4949 C198.497,22.4949,195.387,22.4949,195.387,22.4949 C195.387,22.4949,195.387,23.2449,195.387,23.2449 C195.387,23.2449,199.427,23.2449,199.427,23.2449 C199.427,23.2183,199.429,23.1749,199.432,23.1149 C199.435,23.0549,199.437,22.9983,199.437,22.9449 C199.437,22.4516,199.347,22.0299,199.167,21.6799 C198.987,21.3299,198.725,21.0616,198.382,20.8749 C198.039,20.6883,197.624,20.5949,197.137,20.5949 C196.65,20.5949,196.227,20.6933,195.867,20.8899 C195.507,21.0866,195.229,21.3649,195.032,21.7249 C194.835,22.0849,194.737,22.5083,194.737,22.9949 C194.737,23.4749,194.834,23.8949,195.027,24.2549 C195.22,24.6149,195.495,24.8949,195.852,25.0949 C196.209,25.2949,196.62,25.3949,197.087,25.3949 z M201.197,22.9949 C201.197,22.7083,201.26,22.4549,201.387,22.2349 C201.514,22.0149,201.685,21.8416,201.902,21.7149 C202.119,21.5883,202.36,21.5249,202.627,21.5249 C202.84,21.5249,203.047,21.5583,203.247,21.6249 C203.447,21.6916,203.625,21.7833,203.782,21.8999 C203.939,22.0166,204.054,22.1516,204.127,22.3049 C204.127,22.3049,204.127,21.1049,204.127,21.1049 C203.967,20.9516,203.75,20.8283,203.477,20.7349 C203.204,20.6416,202.904,20.5949,202.577,20.5949 C202.11,20.5949,201.689,20.6966,201.312,20.8999 C200.935,21.1033,200.637,21.3849,200.417,21.7449 C200.197,22.1049,200.087,22.5216,200.087,22.9949 C200.087,23.4616,200.197,23.8766,200.417,24.2399 C200.637,24.6033,200.935,24.8866,201.312,25.0899 C201.689,25.2933,202.11,25.3949,202.577,25.3949 C202.904,25.3949,203.204,25.3483,203.477,25.2549 C203.75,25.1616,203.967,25.0349,204.127,24.8749 C204.127,24.8749,204.127,23.6849,204.127,23.6849 C204.054,23.8316,203.94,23.9633,203.787,24.0799 C203.634,24.1966,203.459,24.2899,203.262,24.3599 C203.065,24.4299,202.854,24.4649,202.627,24.4649 C202.36,24.4649,202.119,24.4016,201.902,24.2749 C201.685,24.1483,201.514,23.9749,201.387,23.7549 C201.26,23.5349,201.197,23.2816,201.197,22.9949 z M206.407,17.4949 C206.407,17.4949,205.317,17.4949,205.317,17.4949 C205.317,17.4949,205.317,25.2949,205.317,25.2949 C205.317,25.2949,206.407,25.2949,206.407,25.2949 z M208.277,22.4949 C208.277,22.4949,208.277,25.2949,208.277,25.2949 C208.277,25.2949,209.367,25.2949,209.367,25.2949 C209.367,25.2949,209.367,22.3449,209.367,22.3449 C209.367,21.9516,209.307,21.6233,209.187,21.3599 C209.067,21.0966,208.89,20.8983,208.657,20.7649 C208.424,20.6316,208.134,20.5649,207.787,20.5649 C207.44,20.5649,207.145,20.6499,206.902,20.8199 C206.659,20.9899,206.472,21.2199,206.342,21.5099 C206.212,21.7999,206.147,22.1283,206.147,22.4949 C206.147,22.4949,206.407,22.4949,206.407,22.4949 C206.407,22.2883,206.449,22.1083,206.532,21.9549 C206.615,21.8016,206.734,21.6816,206.887,21.5949 C207.04,21.5083,207.22,21.4649,207.427,21.4649 C207.72,21.4649,207.935,21.5516,208.072,21.7249 C208.209,21.8983,208.277,22.1549,208.277,22.4949 z M213.957,23.7749 C213.957,23.7749,213.327,24.4149,213.327,24.4149 C213.46,24.5883,213.627,24.7533,213.827,24.9099 C214.027,25.0666,214.257,25.1933,214.517,25.2899 C214.777,25.3866,215.067,25.4349,215.387,25.4349 C215.887,25.4349,216.285,25.3033,216.582,25.0399 C216.879,24.7766,217.027,24.4283,217.027,23.9949 C217.027,23.7149,216.964,23.4883,216.837,23.3149 C216.71,23.1416,216.54,22.9949,216.327,22.8749 C216.114,22.7549,215.877,22.6449,215.617,22.5449 C215.43,22.4716,215.262,22.4016,215.112,22.3349 C214.962,22.2683,214.842,22.1933,214.752,22.1099 C214.662,22.0266,214.617,21.9316,214.617,21.8249 C214.617,21.6983,214.667,21.6016,214.767,21.5349 C214.867,21.4683,214.997,21.4349,215.157,21.4349 C215.384,21.4349,215.604,21.4916,215.817,21.6049 C216.03,21.7183,216.21,21.8649,216.357,22.0449 C216.357,22.0449,216.957,21.4049,216.957,21.4049 C216.83,21.2516,216.677,21.1149,216.497,20.9949 C216.317,20.8749,216.115,20.7783,215.892,20.7049 C215.669,20.6316,215.43,20.5949,215.177,20.5949 C214.897,20.5949,214.635,20.6399,214.392,20.7299 C214.149,20.8199,213.955,20.9583,213.812,21.1449 C213.669,21.3316,213.597,21.5649,213.597,21.8449 C213.597,22.1183,213.662,22.3449,213.792,22.5249 C213.922,22.7049,214.089,22.8499,214.292,22.9599 C214.495,23.0699,214.7,23.1649,214.907,23.2449 C215.114,23.3183,215.294,23.3899,215.447,23.4599 C215.6,23.5299,215.72,23.6133,215.807,23.7099 C215.894,23.8066,215.937,23.9216,215.937,24.0549 C215.937,24.2083,215.882,24.3283,215.772,24.4149 C215.662,24.5016,215.51,24.5449,215.317,24.5449 C215.164,24.5449,215.01,24.5149,214.857,24.4549 C214.704,24.3949,214.554,24.3083,214.407,24.1949 C214.26,24.0816,214.11,23.9416,213.957,23.7749 z M217.637,22.9949 C217.637,23.4616,217.745,23.8766,217.962,24.2399 C218.179,24.6033,218.475,24.8866,218.852,25.0899 C219.229,25.2933,219.65,25.3949,220.117,25.3949 C220.59,25.3949,221.014,25.2933,221.387,25.0899 C221.76,24.8866,222.055,24.6033,222.272,24.2399 C222.489,23.8766,222.597,23.4616,222.597,22.9949 C222.597,22.5216,222.489,22.1049,222.272,21.7449 C222.055,21.3849,221.76,21.1033,221.387,20.8999 C221.014,20.6966,220.59,20.5949,220.117,20.5949 C219.65,20.5949,219.229,20.6966,218.852,20.8999 C218.475,21.1033,218.179,21.3849,217.962,21.7449 C217.745,22.1049,217.637,22.5216,217.637,22.9949 z M218.747,22.9949 C218.747,22.7083,218.807,22.4549,218.927,22.2349 C219.047,22.0149,219.21,21.8449,219.417,21.7249 C219.624,21.6049,219.857,21.5449,220.117,21.5449 C220.377,21.5449,220.61,21.6049,220.817,21.7249 C221.024,21.8449,221.187,22.0149,221.307,22.2349 C221.427,22.4549,221.487,22.7083,221.487,22.9949 C221.487,23.2816,221.427,23.5333,221.307,23.7499 C221.187,23.9666,221.024,24.1366,220.817,24.2599 C220.61,24.3833,220.377,24.4449,220.117,24.4449 C219.857,24.4449,219.624,24.3833,219.417,24.2599 C219.21,24.1366,219.047,23.9666,218.927,23.7499 C218.807,23.5333,218.747,23.2816,218.747,22.9949 z M223.627,17.4949 C223.627,17.4949,223.627,25.2949,223.627,25.2949 C223.627,25.2949,224.717,25.2949,224.717,25.2949 C224.717,25.2949,224.717,17.4949,224.717,17.4949 z M227.197,23.4949 C227.197,23.4949,227.197,20.6949,227.197,20.6949 C227.197,20.6949,226.087,20.6949,226.087,20.6949 C226.087,20.6949,226.087,23.6149,226.087,23.6149 C226.087,24.1616,226.225,24.5949,226.502,24.9149 C226.779,25.2349,227.174,25.3949,227.687,25.3949 C228.007,25.3949,228.282,25.3266,228.512,25.1899 C228.742,25.0533,228.93,24.8516,229.077,24.5849 C229.077,24.5849,229.077,25.2949,229.077,25.2949 C229.077,25.2949,230.157,25.2949,230.157,25.2949 C230.157,25.2949,230.157,20.6949,230.157,20.6949 C230.157,20.6949,229.077,20.6949,229.077,20.6949 C229.077,20.6949,229.077,23.4949,229.077,23.4949 C229.077,23.7016,229.034,23.8816,228.947,24.0349 C228.86,24.1883,228.74,24.3083,228.587,24.3949 C228.434,24.4816,228.257,24.5249,228.057,24.5249 C227.764,24.5249,227.547,24.4349,227.407,24.2549 C227.267,24.0749,227.197,23.8216,227.197,23.4949 z M230.897,20.6949 C230.897,20.6949,230.897,21.6449,230.897,21.6449 C230.897,21.6449,233.507,21.6449,233.507,21.6449 C233.507,21.6449,233.507,20.6949,233.507,20.6949 z M231.677,19.0949 C231.677,19.0949,231.677,25.2949,231.677,25.2949 C231.677,25.2949,232.737,25.2949,232.737,25.2949 C232.737,25.2949,232.737,19.0949,232.737,19.0949 z M234.207,18.8649 C234.207,19.0449,234.275,19.1999,234.412,19.3299 C234.549,19.4599,234.707,19.5249,234.887,19.5249 C235.08,19.5249,235.244,19.4599,235.377,19.3299 C235.51,19.1999,235.577,19.0449,235.577,18.8649 C235.577,18.6783,235.51,18.5216,235.377,18.3949 C235.244,18.2683,235.08,18.2049,234.887,18.2049 C234.707,18.2049,234.549,18.2683,234.412,18.3949 C234.275,18.5216,234.207,18.6783,234.207,18.8649 z M234.357,20.6949 C234.357,20.6949,234.357,25.2949,234.357,25.2949 C234.357,25.2949,235.427,25.2949,235.427,25.2949 C235.427,25.2949,235.427,20.6949,235.427,20.6949 z M236.567,22.9949 C236.567,23.4616,236.675,23.8766,236.892,24.2399 C237.109,24.6033,237.405,24.8866,237.782,25.0899 C238.159,25.2933,238.58,25.3949,239.047,25.3949 C239.52,25.3949,239.944,25.2933,240.317,25.0899 C240.69,24.8866,240.985,24.6033,241.202,24.2399 C241.419,23.8766,241.527,23.4616,241.527,22.9949 C241.527,22.5216,241.419,22.1049,241.202,21.7449 C240.985,21.3849,240.69,21.1033,240.317,20.8999 C239.944,20.6966,239.52,20.5949,239.047,20.5949 C238.58,20.5949,238.159,20.6966,237.782,20.8999 C237.405,21.1033,237.109,21.3849,236.892,21.7449 C236.675,22.1049,236.567,22.5216,236.567,22.9949 z M237.677,22.9949 C237.677,22.7083,237.737,22.4549,237.857,22.2349 C237.977,22.0149,238.14,21.8449,238.347,21.7249 C238.554,21.6049,238.787,21.5449,239.047,21.5449 C239.307,21.5449,239.54,21.6049,239.747,21.7249 C239.954,21.8449,240.117,22.0149,240.237,22.2349 C240.357,22.4549,240.417,22.7083,240.417,22.9949 C240.417,23.2816,240.357,23.5333,240.237,23.7499 C240.117,23.9666,239.954,24.1366,239.747,24.2599 C239.54,24.3833,239.307,24.4449,239.047,24.4449 C238.787,24.4449,238.554,24.3833,238.347,24.2599 C238.14,24.1366,237.977,23.9666,237.857,23.7499 C237.737,23.5333,237.677,23.2816,237.677,22.9949 z M245.517,22.4949 C245.517,22.4949,245.517,25.2949,245.517,25.2949 C245.517,25.2949,246.627,25.2949,246.627,25.2949 C246.627,25.2949,246.627,22.3649,246.627,22.3649 C246.627,21.8183,246.49,21.3866,246.217,21.0699 C245.944,20.7533,245.547,20.5949,245.027,20.5949 C244.714,20.5949,244.442,20.6616,244.212,20.7949 C243.982,20.9283,243.794,21.1316,243.647,21.4049 C243.647,21.4049,243.647,20.6949,243.647,20.6949 C243.647,20.6949,242.557,20.6949,242.557,20.6949 C242.557,20.6949,242.557,25.2949,242.557,25.2949 C242.557,25.2949,243.647,25.2949,243.647,25.2949 C243.647,25.2949,243.647,22.4949,243.647,22.4949 C243.647,22.2883,243.689,22.1066,243.772,21.9499 C243.855,21.7933,243.974,21.6733,244.127,21.5899 C244.28,21.5066,244.46,21.4649,244.667,21.4649 C244.954,21.4649,245.167,21.5516,245.307,21.7249 C245.447,21.8983,245.517,22.1549,245.517,22.4949 z M248.217,23.7749 C248.217,23.7749,247.587,24.4149,247.587,24.4149 C247.72,24.5883,247.887,24.7533,248.087,24.9099 C248.287,25.0666,248.517,25.1933,248.777,25.2899 C249.037,25.3866,249.327,25.4349,249.647,25.4349 C250.147,25.4349,250.545,25.3033,250.842,25.0399 C251.139,24.7766,251.287,24.4283,251.287,23.9949 C251.287,23.7149,251.224,23.4883,251.097,23.3149 C250.97,23.1416,250.8,22.9949,250.587,22.8749 C250.374,22.7549,250.137,22.6449,249.877,22.5449 C249.69,22.4716,249.522,22.4016,249.372,22.3349 C249.222,22.2683,249.102,22.1933,249.012,22.1099 C248.922,22.0266,248.877,21.9316,248.877,21.8249 C248.877,21.6983,248.927,21.6016,249.027,21.5349 C249.127,21.4683,249.257,21.4349,249.417,21.4349 C249.644,21.4349,249.864,21.4916,250.077,21.6049 C250.29,21.7183,250.47,21.8649,250.617,22.0449 C250.617,22.0449,251.217,21.4049,251.217,21.4049 C251.09,21.2516,250.937,21.1149,250.757,20.9949 C250.577,20.8749,250.375,20.7783,250.152,20.7049 C249.929,20.6316,249.69,20.5949,249.437,20.5949 C249.157,20.5949,248.895,20.6399,248.652,20.7299 C248.409,20.8199,248.215,20.9583,248.072,21.1449 C247.929,21.3316,247.857,21.5649,247.857,21.8449 C247.857,22.1183,247.922,22.3449,248.052,22.5249 C248.182,22.7049,248.349,22.8499,248.552,22.9599 C248.755,23.0699,248.96,23.1649,249.167,23.2449 C249.374,23.3183,249.554,23.3899,249.707,23.4599 C249.86,23.5299,249.98,23.6133,250.067,23.7099 C250.154,23.8066,250.197,23.9216,250.197,24.0549 C250.197,24.2083,250.142,24.3283,250.032,24.4149 C249.922,24.5016,249.77,24.5449,249.577,24.5449 C249.424,24.5449,249.27,24.5149,249.117,24.4549 C248.964,24.3949,248.814,24.3083,248.667,24.1949 C248.52,24.0816,248.37,23.9416,248.217,23.7749 z"/>
        </defs>
        <use xlink:href="#5" style="fill:#ffbb41;fill-opacity:1;fill-rule:nonzero;opacity:1;stroke:none;"/>
      </g>
    </defs>
    <use xlink:href="#4"/>
    <defs>
      <title>Text</title>
      <g id="6">
        <defs>
          <path id="7" d="M151.181,8.502 C151.181,8.502,153.359,8.502,153.359,8.502 C154.163,8.502,154.865,8.388,155.465,8.16 C156.065,7.932,156.536,7.599,156.878,7.161 C157.22,6.723,157.391,6.192,157.391,5.568 C157.391,4.848,157.22,4.254,156.878,3.786 C156.536,3.318,156.065,2.97,155.465,2.742 C154.865,2.514,154.163,2.4,153.359,2.4 C153.359,2.4,149.561,2.4,149.561,2.4 C149.561,2.4,149.561,15,149.561,15 C149.561,15,153.575,15,153.575,15 C154.475,15,155.264,14.871,155.942,14.613 C156.62,14.355,157.151,13.956,157.535,13.416 C157.919,12.876,158.111,12.192,158.111,11.364 C158.111,10.764,157.991,10.248,157.751,9.816 C157.511,9.384,157.181,9.03,156.761,8.754 C156.341,8.478,155.858,8.271,155.312,8.133 C154.766,7.995,154.187,7.926,153.575,7.926 C153.575,7.926,151.181,7.926,151.181,7.926 C151.181,7.926,151.181,9.114,151.181,9.114 C151.181,9.114,153.449,9.114,153.449,9.114 C153.809,9.114,154.139,9.153,154.439,9.231 C154.739,9.309,155.003,9.435,155.231,9.609 C155.459,9.783,155.633,9.996,155.753,10.248 C155.873,10.5,155.933,10.8,155.933,11.148 C155.933,11.616,155.825,12.003,155.609,12.309 C155.393,12.615,155.099,12.846,154.727,13.002 C154.355,13.158,153.929,13.236,153.449,13.236 C153.449,13.236,151.685,13.236,151.685,13.236 C151.685,13.236,151.685,4.146,151.685,4.146 C151.685,4.146,153.215,4.146,153.215,4.146 C153.815,4.146,154.298,4.29,154.664,4.578 C155.03,4.866,155.213,5.274,155.213,5.802 C155.213,6.15,155.129,6.447,154.961,6.693 C154.793,6.939,154.559,7.128,154.259,7.26 C153.959,7.392,153.611,7.458,153.215,7.458 C153.215,7.458,151.181,7.458,151.181,7.458 z M163.817,15.18 C164.777,15.18,165.599,14.991,166.283,14.613 C166.967,14.235,167.531,13.674,167.975,12.93 C167.975,12.93,166.283,12.264,166.283,12.264 C166.031,12.708,165.707,13.038,165.311,13.254 C164.915,13.47,164.447,13.578,163.907,13.578 C163.403,13.578,162.977,13.47,162.629,13.254 C162.281,13.038,162.014,12.72,161.828,12.3 C161.642,11.88,161.555,11.376,161.567,10.788 C161.567,10.188,161.66,9.684,161.846,9.276 C162.032,8.868,162.296,8.556,162.638,8.34 C162.98,8.124,163.397,8.016,163.889,8.016 C164.297,8.016,164.654,8.106,164.96,8.286 C165.266,8.466,165.506,8.718,165.68,9.042 C165.854,9.366,165.941,9.75,165.941,10.194 C165.941,10.278,165.92,10.38,165.878,10.5 C165.836,10.62,165.797,10.716,165.761,10.788 C165.761,10.788,166.355,9.96,166.355,9.96 C166.355,9.96,160.757,9.96,160.757,9.96 C160.757,9.96,160.757,11.31,160.757,11.31 C160.757,11.31,168.029,11.31,168.029,11.31 C168.029,11.262,168.032,11.184,168.038,11.076 C168.044,10.968,168.047,10.866,168.047,10.77 C168.047,9.882,167.885,9.123,167.561,8.493 C167.237,7.863,166.766,7.38,166.148,7.044 C165.53,6.708,164.783,6.54,163.907,6.54 C163.031,6.54,162.269,6.717,161.621,7.071 C160.973,7.425,160.472,7.926,160.118,8.574 C159.764,9.222,159.587,9.984,159.587,10.86 C159.587,11.724,159.761,12.48,160.109,13.128 C160.457,13.776,160.952,14.28,161.594,14.64 C162.236,15,162.977,15.18,163.817,15.18 z M171.845,6.72 C171.845,6.72,169.919,6.72,169.919,6.72 C169.919,6.72,169.919,15,169.919,15 C169.919,15,171.845,15,171.845,15 z M174.311,8.79 C174.311,8.79,175.265,7.152,175.265,7.152 C175.073,6.924,174.845,6.762,174.581,6.666 C174.317,6.57,174.035,6.522,173.735,6.522 C173.315,6.522,172.91,6.675,172.52,6.981 C172.13,7.287,171.812,7.695,171.566,8.205 C171.32,8.715,171.197,9.3,171.197,9.96 C171.197,9.96,171.845,10.338,171.845,10.338 C171.845,9.942,171.89,9.597,171.98,9.303 C172.07,9.009,172.217,8.778,172.421,8.61 C172.625,8.442,172.889,8.358,173.213,8.358 C173.453,8.358,173.654,8.394,173.816,8.466 C173.978,8.538,174.143,8.646,174.311,8.79 z M175.445,6.72 C175.445,6.72,175.445,8.43,175.445,8.43 C175.445,8.43,180.143,8.43,180.143,8.43 C180.143,8.43,180.143,6.72,180.143,6.72 z M176.849,3.84 C176.849,3.84,176.849,15,176.849,15 C176.849,15,178.757,15,178.757,15 C178.757,15,178.757,3.84,178.757,3.84 z M185.327,8.52 C185.327,8.52,180.503,15,180.503,15 C180.503,15,188.243,15,188.243,15 C188.243,15,188.243,13.2,188.243,13.2 C188.243,13.2,183.959,13.2,183.959,13.2 C183.959,13.2,188.693,6.72,188.693,6.72 C188.693,6.72,181.133,6.72,181.133,6.72 C181.133,6.72,181.133,8.52,181.133,8.52 z M197.387,8.502 C197.387,8.502,199.565,8.502,199.565,8.502 C200.369,8.502,201.071,8.388,201.671,8.16 C202.271,7.932,202.742,7.599,203.084,7.161 C203.426,6.723,203.597,6.192,203.597,5.568 C203.597,4.848,203.426,4.254,203.084,3.786 C202.742,3.318,202.271,2.97,201.671,2.742 C201.071,2.514,200.369,2.4,199.565,2.4 C199.565,2.4,195.767,2.4,195.767,2.4 C195.767,2.4,195.767,15,195.767,15 C195.767,15,199.781,15,199.781,15 C200.681,15,201.47,14.871,202.148,14.613 C202.826,14.355,203.357,13.956,203.741,13.416 C204.125,12.876,204.317,12.192,204.317,11.364 C204.317,10.764,204.197,10.248,203.957,9.816 C203.717,9.384,203.387,9.03,202.967,8.754 C202.547,8.478,202.064,8.271,201.518,8.133 C200.972,7.995,200.393,7.926,199.781,7.926 C199.781,7.926,197.387,7.926,197.387,7.926 C197.387,7.926,197.387,9.114,197.387,9.114 C197.387,9.114,199.655,9.114,199.655,9.114 C200.015,9.114,200.345,9.153,200.645,9.231 C200.945,9.309,201.209,9.435,201.437,9.609 C201.665,9.783,201.839,9.996,201.959,10.248 C202.079,10.5,202.139,10.8,202.139,11.148 C202.139,11.616,202.031,12.003,201.815,12.309 C201.599,12.615,201.305,12.846,200.933,13.002 C200.561,13.158,200.135,13.236,199.655,13.236 C199.655,13.236,197.891,13.236,197.891,13.236 C197.891,13.236,197.891,4.146,197.891,4.146 C197.891,4.146,199.421,4.146,199.421,4.146 C200.021,4.146,200.504,4.29,200.87,4.578 C201.236,4.866,201.419,5.274,201.419,5.802 C201.419,6.15,201.335,6.447,201.167,6.693 C200.999,6.939,200.765,7.128,200.465,7.26 C200.165,7.392,199.817,7.458,199.421,7.458 C199.421,7.458,197.387,7.458,197.387,7.458 z M206.351,3.426 C206.351,3.75,206.474,4.029,206.72,4.263 C206.966,4.497,207.251,4.614,207.575,4.614 C207.923,4.614,208.217,4.497,208.457,4.263 C208.697,4.029,208.817,3.75,208.817,3.426 C208.817,3.09,208.697,2.808,208.457,2.58 C208.217,2.352,207.923,2.238,207.575,2.238 C207.251,2.238,206.966,2.352,206.72,2.58 C206.474,2.808,206.351,3.09,206.351,3.426 z M206.621,6.72 C206.621,6.72,206.621,15,206.621,15 C206.621,15,208.547,15,208.547,15 C208.547,15,208.547,6.72,208.547,6.72 z M215.081,8.52 C215.081,8.52,210.257,15,210.257,15 C210.257,15,217.997,15,217.997,15 C217.997,15,217.997,13.2,217.997,13.2 C217.997,13.2,213.713,13.2,213.713,13.2 C213.713,13.2,218.447,6.72,218.447,6.72 C218.447,6.72,210.887,6.72,210.887,6.72 C210.887,6.72,210.887,8.52,210.887,8.52 z M225.287,9.96 C225.287,9.96,225.287,15,225.287,15 C225.287,15,227.285,15,227.285,15 C227.285,15,227.285,9.726,227.285,9.726 C227.285,8.742,227.039,7.965,226.547,7.395 C226.055,6.825,225.341,6.54,224.405,6.54 C223.841,6.54,223.352,6.66,222.938,6.9 C222.524,7.14,222.185,7.506,221.921,7.998 C221.921,7.998,221.921,6.72,221.921,6.72 C221.921,6.72,219.959,6.72,219.959,6.72 C219.959,6.72,219.959,15,219.959,15 C219.959,15,221.921,15,221.921,15 C221.921,15,221.921,9.96,221.921,9.96 C221.921,9.588,221.996,9.261,222.146,8.979 C222.296,8.697,222.509,8.481,222.785,8.331 C223.061,8.181,223.385,8.106,223.757,8.106 C224.273,8.106,224.657,8.262,224.909,8.574 C225.161,8.886,225.287,9.348,225.287,9.96 z M233.369,15.18 C234.329,15.18,235.151,14.991,235.835,14.613 C236.519,14.235,237.083,13.674,237.527,12.93 C237.527,12.93,235.835,12.264,235.835,12.264 C235.583,12.708,235.259,13.038,234.863,13.254 C234.467,13.47,233.999,13.578,233.459,13.578 C232.955,13.578,232.529,13.47,232.181,13.254 C231.833,13.038,231.566,12.72,231.38,12.3 C231.194,11.88,231.107,11.376,231.119,10.788 C231.119,10.188,231.212,9.684,231.398,9.276 C231.584,8.868,231.848,8.556,232.19,8.34 C232.532,8.124,232.949,8.016,233.441,8.016 C233.849,8.016,234.206,8.106,234.512,8.286 C234.818,8.466,235.058,8.718,235.232,9.042 C235.406,9.366,235.493,9.75,235.493,10.194 C235.493,10.278,235.472,10.38,235.43,10.5 C235.388,10.62,235.349,10.716,235.313,10.788 C235.313,10.788,235.907,9.96,235.907,9.96 C235.907,9.96,230.309,9.96,230.309,9.96 C230.309,9.96,230.309,11.31,230.309,11.31 C230.309,11.31,237.581,11.31,237.581,11.31 C237.581,11.262,237.584,11.184,237.59,11.076 C237.596,10.968,237.599,10.866,237.599,10.77 C237.599,9.882,237.437,9.123,237.113,8.493 C236.789,7.863,236.318,7.38,235.7,7.044 C235.082,6.708,234.335,6.54,233.459,6.54 C232.583,6.54,231.821,6.717,231.173,7.071 C230.525,7.425,230.024,7.926,229.67,8.574 C229.316,9.222,229.139,9.984,229.139,10.86 C229.139,11.724,229.313,12.48,229.661,13.128 C230.009,13.776,230.504,14.28,231.146,14.64 C231.788,15,232.529,15.18,233.369,15.18 z M239.849,12.264 C239.849,12.264,238.715,13.416,238.715,13.416 C238.955,13.728,239.255,14.025,239.615,14.307 C239.975,14.589,240.389,14.817,240.857,14.991 C241.325,15.165,241.847,15.252,242.423,15.252 C243.323,15.252,244.04,15.015,244.574,14.541 C245.108,14.067,245.375,13.44,245.375,12.66 C245.375,12.156,245.261,11.748,245.033,11.436 C244.805,11.124,244.499,10.86,244.115,10.644 C243.731,10.428,243.305,10.23,242.837,10.05 C242.501,9.918,242.198,9.792,241.928,9.672 C241.658,9.552,241.442,9.417,241.28,9.267 C241.118,9.117,241.037,8.946,241.037,8.754 C241.037,8.526,241.127,8.352,241.307,8.232 C241.487,8.112,241.721,8.052,242.009,8.052 C242.417,8.052,242.813,8.154,243.197,8.358 C243.581,8.562,243.905,8.826,244.169,9.15 C244.169,9.15,245.249,7.998,245.249,7.998 C245.021,7.722,244.745,7.476,244.421,7.26 C244.097,7.044,243.734,6.87,243.332,6.738 C242.93,6.606,242.501,6.54,242.045,6.54 C241.541,6.54,241.07,6.621,240.632,6.783 C240.194,6.945,239.846,7.194,239.588,7.53 C239.33,7.866,239.201,8.286,239.201,8.79 C239.201,9.282,239.318,9.69,239.552,10.014 C239.786,10.338,240.086,10.599,240.452,10.797 C240.818,10.995,241.187,11.166,241.559,11.31 C241.931,11.442,242.255,11.571,242.531,11.697 C242.807,11.823,243.023,11.973,243.179,12.147 C243.335,12.321,243.413,12.528,243.413,12.768 C243.413,13.044,243.314,13.26,243.116,13.416 C242.918,13.572,242.645,13.65,242.297,13.65 C242.021,13.65,241.745,13.596,241.469,13.488 C241.193,13.38,240.923,13.224,240.659,13.02 C240.395,12.816,240.125,12.564,239.849,12.264 z M247.481,12.264 C247.481,12.264,246.347,13.416,246.347,13.416 C246.587,13.728,246.887,14.025,247.247,14.307 C247.607,14.589,248.021,14.817,248.489,14.991 C248.957,15.165,249.479,15.252,250.055,15.252 C250.955,15.252,251.672,15.015,252.206,14.541 C252.74,14.067,253.007,13.44,253.007,12.66 C253.007,12.156,252.893,11.748,252.665,11.436 C252.437,11.124,252.131,10.86,251.747,10.644 C251.363,10.428,250.937,10.23,250.469,10.05 C250.133,9.918,249.83,9.792,249.56,9.672 C249.29,9.552,249.074,9.417,248.912,9.267 C248.75,9.117,248.669,8.946,248.669,8.754 C248.669,8.526,248.759,8.352,248.939,8.232 C249.119,8.112,249.353,8.052,249.641,8.052 C250.049,8.052,250.445,8.154,250.829,8.358 C251.213,8.562,251.537,8.826,251.801,9.15 C251.801,9.15,252.881,7.998,252.881,7.998 C252.653,7.722,252.377,7.476,252.053,7.26 C251.729,7.044,251.366,6.87,250.964,6.738 C250.562,6.606,250.133,6.54,249.677,6.54 C249.173,6.54,248.702,6.621,248.264,6.783 C247.826,6.945,247.478,7.194,247.22,7.53 C246.962,7.866,246.833,8.286,246.833,8.79 C246.833,9.282,246.95,9.69,247.184,10.014 C247.418,10.338,247.718,10.599,248.084,10.797 C248.45,10.995,248.819,11.166,249.191,11.31 C249.563,11.442,249.887,11.571,250.163,11.697 C250.439,11.823,250.655,11.973,250.811,12.147 C250.967,12.321,251.045,12.528,251.045,12.768 C251.045,13.044,250.946,13.26,250.748,13.416 C250.55,13.572,250.277,13.65,249.929,13.65 C249.653,13.65,249.377,13.596,249.101,13.488 C248.825,13.38,248.555,13.224,248.291,13.02 C248.027,12.816,247.757,12.564,247.481,12.264 z"/>
        </defs>
        <use xlink:href="#7" style="fill:#ffffff;fill-opacity:1;fill-rule:nonzero;opacity:1;stroke:none;"/>
      </g>
    </defs>
    <use xlink:href="#6"/>
    <defs>
      <title>Text</title>
      <g id="8">
        <defs>
          <path id="9" d="M145.197,0.959997 C145.197,0.959997,137.709,16.26,137.709,16.26 C137.709,16.26,139.671,16.26,139.671,16.26 C139.671,16.26,147.123,0.959997,147.123,0.959997 z"/>
        </defs>
        <use xlink:href="#9" style="fill:#ffffff;fill-opacity:1;fill-rule:nonzero;opacity:1;stroke:none;"/>
      </g>
    </defs>
    <use xlink:href="#8"/>
  </g>
  <g id="10">
    <title>Layer 2</title>
  </g>
</svg>
