<?xml version="1.0" encoding="utf-8"?>
<svg x="0pt" y="0pt" width="126pt" height="25.92pt" viewBox="0 0 126 25.92" xmlns="http://www.w3.org/2000/svg" xmlns:xlink="http://www.w3.org/1999/xlink">
  <g id="1">
    <title>Layer 1</title>
    <defs>
      <title>Path</title>
      <g id="2">
        <defs>
          <path id="3"/>
        </defs>
        <use xlink:href="#3" style="fill:none;opacity:1;stroke:#fdbf52;stroke-linecap:butt;stroke-linejoin:miter;stroke-miterlimit:10;stroke-opacity:1;stroke-width:6;"/>
      </g>
    </defs>
    <use xlink:href="#2"/>
    <defs>
      <title>Path Copy</title>
      <g id="4">
        <defs>
          <path id="5"/>
        </defs>
        <use xlink:href="#5" style="fill:none;opacity:1;stroke:#fdbf52;stroke-linecap:butt;stroke-linejoin:miter;stroke-miterlimit:10;stroke-opacity:1;stroke-width:6;"/>
      </g>
    </defs>
    <use xlink:href="#4"/>
    <defs>
      <title>Path</title>
      <g id="6">
        <defs>
          <path id="7" d="M47.5449,28.8662"/>
        </defs>
        <use xlink:href="#7" style="fill:none;opacity:1;stroke:#ffffff;stroke-linecap:butt;stroke-linejoin:miter;stroke-miterlimit:10;stroke-opacity:1;stroke-width:2;"/>
      </g>
    </defs>
    <use xlink:href="#6"/>
    <defs>
      <title>Shape 31</title>
      <g id="8">
        <defs>
          <path id="9" d="M122.591,21.2951 C122.383,21.3877,122.28,21.6484,122.404,21.8663 C122.63,22.2608,122.826,22.6493,122.587,23.0904 C122.295,23.627,121.574,23.8259,121.048,23.5168 C120.399,23.1354,120.479,22.4417,120.828,21.8805 C120.965,21.6617,120.863,21.3908,120.65,21.296 C119.792,21.2964,118.934,21.2968,118.075,21.2972 C118.075,21.2856,118.075,21.274,118.075,21.2624 C118.075,20.9572,118.075,20.652,118.075,20.3468 C118.074,19.8154,118.074,19.2839,118.074,18.7525 C117.992,18.5193,117.707,18.4009,117.478,18.5436 C116.917,18.8934,116.223,18.9732,115.842,18.3247 C115.532,17.7989,115.731,17.0772,116.268,16.7856 C116.709,16.546,117.097,16.7423,117.492,16.9675 C117.719,17.0972,117.992,16.9795,118.073,16.754 C118.073,16.754,118.072,14.2389,118.072,14.2389 C118.072,14.2389,120.481,14.2378,120.481,14.2378 C120.486,14.2378,120.49,14.237,120.495,14.2369 C120.545,14.2369,120.596,14.2368,120.647,14.2368 C120.86,14.3316,120.961,14.6025,120.825,14.8212 C120.475,15.3825,120.396,16.0763,121.044,16.4575 C121.57,16.7667,122.292,16.5678,122.583,16.0312 C122.823,15.59,122.626,15.2016,122.401,14.8071 C122.277,14.5892,122.38,14.3285,122.587,14.2359 C122.638,14.2359,122.688,14.2358,122.739,14.2358 C122.743,14.236,122.748,14.2367,122.752,14.2368 C123.545,14.2364,124.338,14.236,125.13,14.2356 C125.131,15.0602,125.131,15.8847,125.131,16.7092 C125.074,16.9891,124.803,17.0984,124.539,16.9554 C124.14,16.7388,123.786,16.546,123.345,16.7857 C122.808,17.0772,122.58,17.7868,122.889,18.3126 C123.271,18.9611,123.965,18.8812,124.526,18.5314 C124.766,18.3816,125.069,18.5194,125.132,18.7759 C125.133,19.2731,125.133,19.7703,125.133,20.2675 C125.133,20.598,125.133,20.9286,125.133,21.2591 C125.133,21.2707,125.133,21.2823,125.133,21.2939 C124.286,21.2943,123.438,21.2947,122.591,21.2951"/>
        </defs>
        <use xlink:href="#9" style="fill:#fdbf52;fill-opacity:1;fill-rule:nonzero;opacity:1;stroke:none;"/>
      </g>
    </defs>
    <use xlink:href="#8"/>
    <defs>
      <title>Path</title>
      <g id="10">
        <defs>
          <path id="11"/>
        </defs>
        <use xlink:href="#11" style="fill:none;opacity:1;stroke:#fdbf52;stroke-linecap:butt;stroke-linejoin:miter;stroke-miterlimit:10;stroke-opacity:1;stroke-width:6;"/>
      </g>
    </defs>
    <use xlink:href="#10"/>
    <defs>
      <title>Path Copy</title>
      <g id="12">
        <defs>
          <path id="13"/>
        </defs>
        <use xlink:href="#13" style="fill:none;opacity:1;stroke:#fdbf52;stroke-linecap:butt;stroke-linejoin:miter;stroke-miterlimit:10;stroke-opacity:1;stroke-width:6;"/>
      </g>
    </defs>
    <use xlink:href="#12"/>
    <defs>
      <title>Text</title>
      <g id="14">
        <defs>
          <path id="15" d="M56.5797,20.6949 C56.5797,20.6949,56.5797,21.6449,56.5797,21.6449 C56.5797,21.6449,59.1897,21.6449,59.1897,21.6449 C59.1897,21.6449,59.1897,20.6949,59.1897,20.6949 z M57.3597,19.0949 C57.3597,19.0949,57.3597,25.2949,57.3597,25.2949 C57.3597,25.2949,58.4197,25.2949,58.4197,25.2949 C58.4197,25.2949,58.4197,19.0949,58.4197,19.0949 z M61.9297,25.3949 C62.4631,25.3949,62.9197,25.2899,63.2997,25.0799 C63.6797,24.8699,63.9931,24.5583,64.2397,24.1449 C64.2397,24.1449,63.2997,23.7749,63.2997,23.7749 C63.1597,24.0216,62.9797,24.2049,62.7597,24.3249 C62.5397,24.4449,62.2797,24.5049,61.9797,24.5049 C61.6997,24.5049,61.4631,24.4449,61.2697,24.3249 C61.0764,24.2049,60.9281,24.0283,60.8247,23.7949 C60.7214,23.5616,60.6731,23.2816,60.6797,22.9549 C60.6797,22.6216,60.7314,22.3416,60.8347,22.1149 C60.9381,21.8883,61.0847,21.7149,61.2747,21.5949 C61.4647,21.4749,61.6964,21.4149,61.9697,21.4149 C62.1964,21.4149,62.3947,21.4649,62.5647,21.5649 C62.7347,21.6649,62.8681,21.8049,62.9647,21.9849 C63.0614,22.1649,63.1097,22.3783,63.1097,22.6249 C63.1097,22.6716,63.0981,22.7283,63.0747,22.7949 C63.0514,22.8616,63.0297,22.9149,63.0097,22.9549 C63.0097,22.9549,63.3397,22.4949,63.3397,22.4949 C63.3397,22.4949,60.2297,22.4949,60.2297,22.4949 C60.2297,22.4949,60.2297,23.2449,60.2297,23.2449 C60.2297,23.2449,64.2697,23.2449,64.2697,23.2449 C64.2697,23.2183,64.2714,23.1749,64.2747,23.1149 C64.2781,23.0549,64.2797,22.9983,64.2797,22.9449 C64.2797,22.4516,64.1897,22.0299,64.0097,21.6799 C63.8297,21.3299,63.5681,21.0616,63.2247,20.8749 C62.8814,20.6883,62.4664,20.5949,61.9797,20.5949 C61.4931,20.5949,61.0697,20.6933,60.7097,20.8899 C60.3497,21.0866,60.0714,21.3649,59.8747,21.7249 C59.6781,22.0849,59.5797,22.5083,59.5797,22.9949 C59.5797,23.4749,59.6764,23.8949,59.8697,24.2549 C60.0631,24.6149,60.3381,24.8949,60.6947,25.0949 C61.0514,25.2949,61.4631,25.3949,61.9297,25.3949 z M66.0397,22.9949 C66.0397,22.7083,66.1031,22.4549,66.2297,22.2349 C66.3564,22.0149,66.5281,21.8416,66.7447,21.7149 C66.9614,21.5883,67.2031,21.5249,67.4697,21.5249 C67.6831,21.5249,67.8897,21.5583,68.0897,21.6249 C68.2897,21.6916,68.4681,21.7833,68.6247,21.8999 C68.7814,22.0166,68.8964,22.1516,68.9697,22.3049 C68.9697,22.3049,68.9697,21.1049,68.9697,21.1049 C68.8097,20.9516,68.5931,20.8283,68.3197,20.7349 C68.0464,20.6416,67.7464,20.5949,67.4197,20.5949 C66.9531,20.5949,66.5314,20.6966,66.1547,20.8999 C65.7781,21.1033,65.4797,21.3849,65.2597,21.7449 C65.0397,22.1049,64.9297,22.5216,64.9297,22.9949 C64.9297,23.4616,65.0397,23.8766,65.2597,24.2399 C65.4797,24.6033,65.7781,24.8866,66.1547,25.0899 C66.5314,25.2933,66.9531,25.3949,67.4197,25.3949 C67.7464,25.3949,68.0464,25.3483,68.3197,25.2549 C68.5931,25.1616,68.8097,25.0349,68.9697,24.8749 C68.9697,24.8749,68.9697,23.6849,68.9697,23.6849 C68.8964,23.8316,68.7831,23.9633,68.6297,24.0799 C68.4764,24.1966,68.3014,24.2899,68.1047,24.3599 C67.9081,24.4299,67.6964,24.4649,67.4697,24.4649 C67.2031,24.4649,66.9614,24.4016,66.7447,24.2749 C66.5281,24.1483,66.3564,23.9749,66.2297,23.7549 C66.1031,23.5349,66.0397,23.2816,66.0397,22.9949 z M71.2497,17.4949 C71.2497,17.4949,70.1597,17.4949,70.1597,17.4949 C70.1597,17.4949,70.1597,25.2949,70.1597,25.2949 C70.1597,25.2949,71.2497,25.2949,71.2497,25.2949 z M73.1197,22.4949 C73.1197,22.4949,73.1197,25.2949,73.1197,25.2949 C73.1197,25.2949,74.2097,25.2949,74.2097,25.2949 C74.2097,25.2949,74.2097,22.3449,74.2097,22.3449 C74.2097,21.9516,74.1497,21.6233,74.0297,21.3599 C73.9097,21.0966,73.7331,20.8983,73.4997,20.7649 C73.2664,20.6316,72.9764,20.5649,72.6297,20.5649 C72.2831,20.5649,71.9881,20.6499,71.7447,20.8199 C71.5014,20.9899,71.3147,21.2199,71.1847,21.5099 C71.0547,21.7999,70.9897,22.1283,70.9897,22.4949 C70.9897,22.4949,71.2497,22.4949,71.2497,22.4949 C71.2497,22.2883,71.2914,22.1083,71.3747,21.9549 C71.4581,21.8016,71.5764,21.6816,71.7297,21.5949 C71.8831,21.5083,72.0631,21.4649,72.2697,21.4649 C72.5631,21.4649,72.7781,21.5516,72.9147,21.7249 C73.0514,21.8983,73.1197,22.1549,73.1197,22.4949 z M78.7997,23.7749 C78.7997,23.7749,78.1697,24.4149,78.1697,24.4149 C78.3031,24.5883,78.4697,24.7533,78.6697,24.9099 C78.8697,25.0666,79.0997,25.1933,79.3597,25.2899 C79.6197,25.3866,79.9097,25.4349,80.2297,25.4349 C80.7297,25.4349,81.1281,25.3033,81.4247,25.0399 C81.7214,24.7766,81.8697,24.4283,81.8697,23.9949 C81.8697,23.7149,81.8064,23.4883,81.6797,23.3149 C81.5531,23.1416,81.3831,22.9949,81.1697,22.8749 C80.9564,22.7549,80.7197,22.6449,80.4597,22.5449 C80.2731,22.4716,80.1047,22.4016,79.9547,22.3349 C79.8047,22.2683,79.6847,22.1933,79.5947,22.1099 C79.5047,22.0266,79.4597,21.9316,79.4597,21.8249 C79.4597,21.6983,79.5097,21.6016,79.6097,21.5349 C79.7097,21.4683,79.8397,21.4349,79.9997,21.4349 C80.2264,21.4349,80.4464,21.4916,80.6597,21.6049 C80.8731,21.7183,81.0531,21.8649,81.1997,22.0449 C81.1997,22.0449,81.7997,21.4049,81.7997,21.4049 C81.6731,21.2516,81.5197,21.1149,81.3397,20.9949 C81.1597,20.8749,80.9581,20.7783,80.7347,20.7049 C80.5114,20.6316,80.2731,20.5949,80.0197,20.5949 C79.7397,20.5949,79.4781,20.6399,79.2347,20.7299 C78.9914,20.8199,78.7981,20.9583,78.6547,21.1449 C78.5114,21.3316,78.4397,21.5649,78.4397,21.8449 C78.4397,22.1183,78.5047,22.3449,78.6347,22.5249 C78.7647,22.7049,78.9314,22.8499,79.1347,22.9599 C79.3381,23.0699,79.5431,23.1649,79.7497,23.2449 C79.9564,23.3183,80.1364,23.3899,80.2897,23.4599 C80.4431,23.5299,80.5631,23.6133,80.6497,23.7099 C80.7364,23.8066,80.7797,23.9216,80.7797,24.0549 C80.7797,24.2083,80.7247,24.3283,80.6147,24.4149 C80.5047,24.5016,80.3531,24.5449,80.1597,24.5449 C80.0064,24.5449,79.8531,24.5149,79.6997,24.4549 C79.5464,24.3949,79.3964,24.3083,79.2497,24.1949 C79.1031,24.0816,78.9531,23.9416,78.7997,23.7749 z M82.4797,22.9949 C82.4797,23.4616,82.5881,23.8766,82.8047,24.2399 C83.0214,24.6033,83.3181,24.8866,83.6947,25.0899 C84.0714,25.2933,84.4931,25.3949,84.9597,25.3949 C85.4331,25.3949,85.8564,25.2933,86.2297,25.0899 C86.6031,24.8866,86.8981,24.6033,87.1147,24.2399 C87.3314,23.8766,87.4397,23.4616,87.4397,22.9949 C87.4397,22.5216,87.3314,22.1049,87.1147,21.7449 C86.8981,21.3849,86.6031,21.1033,86.2297,20.8999 C85.8564,20.6966,85.4331,20.5949,84.9597,20.5949 C84.4931,20.5949,84.0714,20.6966,83.6947,20.8999 C83.3181,21.1033,83.0214,21.3849,82.8047,21.7449 C82.5881,22.1049,82.4797,22.5216,82.4797,22.9949 z M83.5897,22.9949 C83.5897,22.7083,83.6497,22.4549,83.7697,22.2349 C83.8897,22.0149,84.0531,21.8449,84.2597,21.7249 C84.4664,21.6049,84.6997,21.5449,84.9597,21.5449 C85.2197,21.5449,85.4531,21.6049,85.6597,21.7249 C85.8664,21.8449,86.0297,22.0149,86.1497,22.2349 C86.2697,22.4549,86.3297,22.7083,86.3297,22.9949 C86.3297,23.2816,86.2697,23.5333,86.1497,23.7499 C86.0297,23.9666,85.8664,24.1366,85.6597,24.2599 C85.4531,24.3833,85.2197,24.4449,84.9597,24.4449 C84.6997,24.4449,84.4664,24.3833,84.2597,24.2599 C84.0531,24.1366,83.8897,23.9666,83.7697,23.7499 C83.6497,23.5333,83.5897,23.2816,83.5897,22.9949 z M88.4697,17.4949 C88.4697,17.4949,88.4697,25.2949,88.4697,25.2949 C88.4697,25.2949,89.5597,25.2949,89.5597,25.2949 C89.5597,25.2949,89.5597,17.4949,89.5597,17.4949 z M92.0397,23.4949 C92.0397,23.4949,92.0397,20.6949,92.0397,20.6949 C92.0397,20.6949,90.9297,20.6949,90.9297,20.6949 C90.9297,20.6949,90.9297,23.6149,90.9297,23.6149 C90.9297,24.1616,91.0681,24.5949,91.3447,24.9149 C91.6214,25.2349,92.0164,25.3949,92.5297,25.3949 C92.8497,25.3949,93.1247,25.3266,93.3547,25.1899 C93.5847,25.0533,93.7731,24.8516,93.9197,24.5849 C93.9197,24.5849,93.9197,25.2949,93.9197,25.2949 C93.9197,25.2949,94.9997,25.2949,94.9997,25.2949 C94.9997,25.2949,94.9997,20.6949,94.9997,20.6949 C94.9997,20.6949,93.9197,20.6949,93.9197,20.6949 C93.9197,20.6949,93.9197,23.4949,93.9197,23.4949 C93.9197,23.7016,93.8764,23.8816,93.7897,24.0349 C93.7031,24.1883,93.5831,24.3083,93.4297,24.3949 C93.2764,24.4816,93.0997,24.5249,92.8997,24.5249 C92.6064,24.5249,92.3897,24.4349,92.2497,24.2549 C92.1097,24.0749,92.0397,23.8216,92.0397,23.4949 z M95.7397,20.6949 C95.7397,20.6949,95.7397,21.6449,95.7397,21.6449 C95.7397,21.6449,98.3497,21.6449,98.3497,21.6449 C98.3497,21.6449,98.3497,20.6949,98.3497,20.6949 z M96.5197,19.0949 C96.5197,19.0949,96.5197,25.2949,96.5197,25.2949 C96.5197,25.2949,97.5797,25.2949,97.5797,25.2949 C97.5797,25.2949,97.5797,19.0949,97.5797,19.0949 z M99.0497,18.8649 C99.0497,19.0449,99.1181,19.1999,99.2547,19.3299 C99.3914,19.4599,99.5497,19.5249,99.7297,19.5249 C99.9231,19.5249,100.086,19.4599,100.22,19.3299 C100.353,19.1999,100.42,19.0449,100.42,18.8649 C100.42,18.6783,100.353,18.5216,100.22,18.3949 C100.086,18.2683,99.9231,18.2049,99.7297,18.2049 C99.5497,18.2049,99.3914,18.2683,99.2547,18.3949 C99.1181,18.5216,99.0497,18.6783,99.0497,18.8649 z M99.1997,20.6949 C99.1997,20.6949,99.1997,25.2949,99.1997,25.2949 C99.1997,25.2949,100.27,25.2949,100.27,25.2949 C100.27,25.2949,100.27,20.6949,100.27,20.6949 z M101.41,22.9949 C101.41,23.4616,101.518,23.8766,101.735,24.2399 C101.951,24.6033,102.248,24.8866,102.625,25.0899 C103.001,25.2933,103.423,25.3949,103.89,25.3949 C104.363,25.3949,104.786,25.2933,105.16,25.0899 C105.533,24.8866,105.828,24.6033,106.045,24.2399 C106.261,23.8766,106.37,23.4616,106.37,22.9949 C106.37,22.5216,106.261,22.1049,106.045,21.7449 C105.828,21.3849,105.533,21.1033,105.16,20.8999 C104.786,20.6966,104.363,20.5949,103.89,20.5949 C103.423,20.5949,103.001,20.6966,102.625,20.8999 C102.248,21.1033,101.951,21.3849,101.735,21.7449 C101.518,22.1049,101.41,22.5216,101.41,22.9949 z M102.52,22.9949 C102.52,22.7083,102.58,22.4549,102.7,22.2349 C102.82,22.0149,102.983,21.8449,103.19,21.7249 C103.396,21.6049,103.63,21.5449,103.89,21.5449 C104.15,21.5449,104.383,21.6049,104.59,21.7249 C104.796,21.8449,104.96,22.0149,105.08,22.2349 C105.2,22.4549,105.26,22.7083,105.26,22.9949 C105.26,23.2816,105.2,23.5333,105.08,23.7499 C104.96,23.9666,104.796,24.1366,104.59,24.2599 C104.383,24.3833,104.15,24.4449,103.89,24.4449 C103.63,24.4449,103.396,24.3833,103.19,24.2599 C102.983,24.1366,102.82,23.9666,102.7,23.7499 C102.58,23.5333,102.52,23.2816,102.52,22.9949 z M110.36,22.4949 C110.36,22.4949,110.36,25.2949,110.36,25.2949 C110.36,25.2949,111.47,25.2949,111.47,25.2949 C111.47,25.2949,111.47,22.3649,111.47,22.3649 C111.47,21.8183,111.333,21.3866,111.06,21.0699 C110.786,20.7533,110.39,20.5949,109.87,20.5949 C109.556,20.5949,109.285,20.6616,109.055,20.7949 C108.825,20.9283,108.636,21.1316,108.49,21.4049 C108.49,21.4049,108.49,20.6949,108.49,20.6949 C108.49,20.6949,107.4,20.6949,107.4,20.6949 C107.4,20.6949,107.4,25.2949,107.4,25.2949 C107.4,25.2949,108.49,25.2949,108.49,25.2949 C108.49,25.2949,108.49,22.4949,108.49,22.4949 C108.49,22.2883,108.531,22.1066,108.615,21.9499 C108.698,21.7933,108.816,21.6733,108.97,21.5899 C109.123,21.5066,109.303,21.4649,109.51,21.4649 C109.796,21.4649,110.01,21.5516,110.15,21.7249 C110.29,21.8983,110.36,22.1549,110.36,22.4949 z M113.06,23.7749 C113.06,23.7749,112.43,24.4149,112.43,24.4149 C112.563,24.5883,112.73,24.7533,112.93,24.9099 C113.13,25.0666,113.36,25.1933,113.62,25.2899 C113.88,25.3866,114.17,25.4349,114.49,25.4349 C114.99,25.4349,115.388,25.3033,115.685,25.0399 C115.981,24.7766,116.13,24.4283,116.13,23.9949 C116.13,23.7149,116.066,23.4883,115.94,23.3149 C115.813,23.1416,115.643,22.9949,115.43,22.8749 C115.216,22.7549,114.98,22.6449,114.72,22.5449 C114.533,22.4716,114.365,22.4016,114.215,22.3349 C114.065,22.2683,113.945,22.1933,113.855,22.1099 C113.765,22.0266,113.72,21.9316,113.72,21.8249 C113.72,21.6983,113.77,21.6016,113.87,21.5349 C113.97,21.4683,114.1,21.4349,114.26,21.4349 C114.486,21.4349,114.706,21.4916,114.92,21.6049 C115.133,21.7183,115.313,21.8649,115.46,22.0449 C115.46,22.0449,116.06,21.4049,116.06,21.4049 C115.933,21.2516,115.78,21.1149,115.6,20.9949 C115.42,20.8749,115.218,20.7783,114.995,20.7049 C114.771,20.6316,114.533,20.5949,114.28,20.5949 C114,20.5949,113.738,20.6399,113.495,20.7299 C113.251,20.8199,113.058,20.9583,112.915,21.1449 C112.771,21.3316,112.7,21.5649,112.7,21.8449 C112.7,22.1183,112.765,22.3449,112.895,22.5249 C113.025,22.7049,113.191,22.8499,113.395,22.9599 C113.598,23.0699,113.803,23.1649,114.01,23.2449 C114.216,23.3183,114.396,23.3899,114.55,23.4599 C114.703,23.5299,114.823,23.6133,114.91,23.7099 C114.996,23.8066,115.04,23.9216,115.04,24.0549 C115.04,24.2083,114.985,24.3283,114.875,24.4149 C114.765,24.5016,114.613,24.5449,114.42,24.5449 C114.266,24.5449,114.113,24.5149,113.96,24.4549 C113.806,24.3949,113.656,24.3083,113.51,24.1949 C113.363,24.0816,113.213,23.9416,113.06,23.7749 z"/>
        </defs>
        <use xlink:href="#15" style="fill:#ffbb41;fill-opacity:1;fill-rule:nonzero;opacity:1;stroke:none;"/>
      </g>
    </defs>
    <use xlink:href="#14"/>
    <defs>
      <title>Text</title>
      <g id="16">
        <defs>
          <path id="17" d="M16.024,8.502 C16.024,8.502,18.202,8.502,18.202,8.502 C19.006,8.502,19.708,8.388,20.308,8.16 C20.908,7.932,21.379,7.599,21.721,7.161 C22.063,6.723,22.234,6.192,22.234,5.568 C22.234,4.848,22.063,4.254,21.721,3.786 C21.379,3.318,20.908,2.97,20.308,2.742 C19.708,2.514,19.006,2.4,18.202,2.4 C18.202,2.4,14.404,2.4,14.404,2.4 C14.404,2.4,14.404,15,14.404,15 C14.404,15,18.418,15,18.418,15 C19.318,15,20.107,14.871,20.785,14.613 C21.463,14.355,21.994,13.956,22.378,13.416 C22.762,12.876,22.954,12.192,22.954,11.364 C22.954,10.764,22.834,10.248,22.594,9.816 C22.354,9.384,22.024,9.03,21.604,8.754 C21.184,8.478,20.701,8.271,20.155,8.133 C19.609,7.995,19.03,7.926,18.418,7.926 C18.418,7.926,16.024,7.926,16.024,7.926 C16.024,7.926,16.024,9.114,16.024,9.114 C16.024,9.114,18.292,9.114,18.292,9.114 C18.652,9.114,18.982,9.153,19.282,9.231 C19.582,9.309,19.846,9.435,20.074,9.609 C20.302,9.783,20.476,9.996,20.596,10.248 C20.716,10.5,20.776,10.8,20.776,11.148 C20.776,11.616,20.668,12.003,20.452,12.309 C20.236,12.615,19.942,12.846,19.57,13.002 C19.198,13.158,18.772,13.236,18.292,13.236 C18.292,13.236,16.528,13.236,16.528,13.236 C16.528,13.236,16.528,4.146,16.528,4.146 C16.528,4.146,18.058,4.146,18.058,4.146 C18.658,4.146,19.141,4.29,19.507,4.578 C19.873,4.866,20.056,5.274,20.056,5.802 C20.056,6.15,19.972,6.447,19.804,6.693 C19.636,6.939,19.402,7.128,19.102,7.26 C18.802,7.392,18.454,7.458,18.058,7.458 C18.058,7.458,16.024,7.458,16.024,7.458 z M28.66,15.18 C29.62,15.18,30.442,14.991,31.126,14.613 C31.81,14.235,32.374,13.674,32.818,12.93 C32.818,12.93,31.126,12.264,31.126,12.264 C30.874,12.708,30.55,13.038,30.154,13.254 C29.758,13.47,29.29,13.578,28.75,13.578 C28.246,13.578,27.82,13.47,27.472,13.254 C27.124,13.038,26.857,12.72,26.671,12.3 C26.485,11.88,26.398,11.376,26.41,10.788 C26.41,10.188,26.503,9.684,26.689,9.276 C26.875,8.868,27.139,8.556,27.481,8.34 C27.823,8.124,28.24,8.016,28.732,8.016 C29.14,8.016,29.497,8.106,29.803,8.286 C30.109,8.466,30.349,8.718,30.523,9.042 C30.697,9.366,30.784,9.75,30.784,10.194 C30.784,10.278,30.763,10.38,30.721,10.5 C30.679,10.62,30.64,10.716,30.604,10.788 C30.604,10.788,31.198,9.96,31.198,9.96 C31.198,9.96,25.6,9.96,25.6,9.96 C25.6,9.96,25.6,11.31,25.6,11.31 C25.6,11.31,32.872,11.31,32.872,11.31 C32.872,11.262,32.875,11.184,32.881,11.076 C32.887,10.968,32.89,10.866,32.89,10.77 C32.89,9.882,32.728,9.123,32.404,8.493 C32.08,7.863,31.609,7.38,30.991,7.044 C30.373,6.708,29.626,6.54,28.75,6.54 C27.874,6.54,27.112,6.717,26.464,7.071 C25.816,7.425,25.315,7.926,24.961,8.574 C24.607,9.222,24.43,9.984,24.43,10.86 C24.43,11.724,24.604,12.48,24.952,13.128 C25.3,13.776,25.795,14.28,26.437,14.64 C27.079,15,27.82,15.18,28.66,15.18 z M36.688,6.72 C36.688,6.72,34.762,6.72,34.762,6.72 C34.762,6.72,34.762,15,34.762,15 C34.762,15,36.688,15,36.688,15 z M39.154,8.79 C39.154,8.79,40.108,7.152,40.108,7.152 C39.916,6.924,39.688,6.762,39.424,6.666 C39.16,6.57,38.878,6.522,38.578,6.522 C38.158,6.522,37.753,6.675,37.363,6.981 C36.973,7.287,36.655,7.695,36.409,8.205 C36.163,8.715,36.04,9.3,36.04,9.96 C36.04,9.96,36.688,10.338,36.688,10.338 C36.688,9.942,36.733,9.597,36.823,9.303 C36.913,9.009,37.06,8.778,37.264,8.61 C37.468,8.442,37.732,8.358,38.056,8.358 C38.296,8.358,38.497,8.394,38.659,8.466 C38.821,8.538,38.986,8.646,39.154,8.79 z M40.288,6.72 C40.288,6.72,40.288,8.43,40.288,8.43 C40.288,8.43,44.986,8.43,44.986,8.43 C44.986,8.43,44.986,6.72,44.986,6.72 z M41.692,3.84 C41.692,3.84,41.692,15,41.692,15 C41.692,15,43.6,15,43.6,15 C43.6,15,43.6,3.84,43.6,3.84 z M50.17,8.52 C50.17,8.52,45.346,15,45.346,15 C45.346,15,53.086,15,53.086,15 C53.086,15,53.086,13.2,53.086,13.2 C53.086,13.2,48.802,13.2,48.802,13.2 C48.802,13.2,53.536,6.72,53.536,6.72 C53.536,6.72,45.976,6.72,45.976,6.72 C45.976,6.72,45.976,8.52,45.976,8.52 z M62.23,8.502 C62.23,8.502,64.408,8.502,64.408,8.502 C65.212,8.502,65.914,8.388,66.514,8.16 C67.114,7.932,67.585,7.599,67.927,7.161 C68.269,6.723,68.44,6.192,68.44,5.568 C68.44,4.848,68.269,4.254,67.927,3.786 C67.585,3.318,67.114,2.97,66.514,2.742 C65.914,2.514,65.212,2.4,64.408,2.4 C64.408,2.4,60.61,2.4,60.61,2.4 C60.61,2.4,60.61,15,60.61,15 C60.61,15,64.624,15,64.624,15 C65.524,15,66.313,14.871,66.991,14.613 C67.669,14.355,68.2,13.956,68.584,13.416 C68.968,12.876,69.16,12.192,69.16,11.364 C69.16,10.764,69.04,10.248,68.8,9.816 C68.56,9.384,68.23,9.03,67.81,8.754 C67.39,8.478,66.907,8.271,66.361,8.133 C65.815,7.995,65.236,7.926,64.624,7.926 C64.624,7.926,62.23,7.926,62.23,7.926 C62.23,7.926,62.23,9.114,62.23,9.114 C62.23,9.114,64.498,9.114,64.498,9.114 C64.858,9.114,65.188,9.153,65.488,9.231 C65.788,9.309,66.052,9.435,66.28,9.609 C66.508,9.783,66.682,9.996,66.802,10.248 C66.922,10.5,66.982,10.8,66.982,11.148 C66.982,11.616,66.874,12.003,66.658,12.309 C66.442,12.615,66.148,12.846,65.776,13.002 C65.404,13.158,64.978,13.236,64.498,13.236 C64.498,13.236,62.734,13.236,62.734,13.236 C62.734,13.236,62.734,4.146,62.734,4.146 C62.734,4.146,64.264,4.146,64.264,4.146 C64.864,4.146,65.347,4.29,65.713,4.578 C66.079,4.866,66.262,5.274,66.262,5.802 C66.262,6.15,66.178,6.447,66.01,6.693 C65.842,6.939,65.608,7.128,65.308,7.26 C65.008,7.392,64.66,7.458,64.264,7.458 C64.264,7.458,62.23,7.458,62.23,7.458 z M71.194,3.426 C71.194,3.75,71.317,4.029,71.563,4.263 C71.809,4.497,72.094,4.614,72.418,4.614 C72.766,4.614,73.06,4.497,73.3,4.263 C73.54,4.029,73.66,3.75,73.66,3.426 C73.66,3.09,73.54,2.808,73.3,2.58 C73.06,2.352,72.766,2.238,72.418,2.238 C72.094,2.238,71.809,2.352,71.563,2.58 C71.317,2.808,71.194,3.09,71.194,3.426 z M71.464,6.72 C71.464,6.72,71.464,15,71.464,15 C71.464,15,73.39,15,73.39,15 C73.39,15,73.39,6.72,73.39,6.72 z M79.924,8.52 C79.924,8.52,75.1,15,75.1,15 C75.1,15,82.84,15,82.84,15 C82.84,15,82.84,13.2,82.84,13.2 C82.84,13.2,78.556,13.2,78.556,13.2 C78.556,13.2,83.29,6.72,83.29,6.72 C83.29,6.72,75.73,6.72,75.73,6.72 C75.73,6.72,75.73,8.52,75.73,8.52 z M90.13,9.96 C90.13,9.96,90.13,15,90.13,15 C90.13,15,92.128,15,92.128,15 C92.128,15,92.128,9.726,92.128,9.726 C92.128,8.742,91.882,7.965,91.39,7.395 C90.898,6.825,90.184,6.54,89.248,6.54 C88.684,6.54,88.195,6.66,87.781,6.9 C87.367,7.14,87.028,7.506,86.764,7.998 C86.764,7.998,86.764,6.72,86.764,6.72 C86.764,6.72,84.802,6.72,84.802,6.72 C84.802,6.72,84.802,15,84.802,15 C84.802,15,86.764,15,86.764,15 C86.764,15,86.764,9.96,86.764,9.96 C86.764,9.588,86.839,9.261,86.989,8.979 C87.139,8.697,87.352,8.481,87.628,8.331 C87.904,8.181,88.228,8.106,88.6,8.106 C89.116,8.106,89.5,8.262,89.752,8.574 C90.004,8.886,90.13,9.348,90.13,9.96 z M98.212,15.18 C99.172,15.18,99.994,14.991,100.678,14.613 C101.362,14.235,101.926,13.674,102.37,12.93 C102.37,12.93,100.678,12.264,100.678,12.264 C100.426,12.708,100.102,13.038,99.706,13.254 C99.31,13.47,98.842,13.578,98.302,13.578 C97.798,13.578,97.372,13.47,97.024,13.254 C96.676,13.038,96.409,12.72,96.223,12.3 C96.037,11.88,95.95,11.376,95.962,10.788 C95.962,10.188,96.055,9.684,96.241,9.276 C96.427,8.868,96.691,8.556,97.033,8.34 C97.375,8.124,97.792,8.016,98.284,8.016 C98.692,8.016,99.049,8.106,99.355,8.286 C99.661,8.466,99.901,8.718,100.075,9.042 C100.249,9.366,100.336,9.75,100.336,10.194 C100.336,10.278,100.315,10.38,100.273,10.5 C100.231,10.62,100.192,10.716,100.156,10.788 C100.156,10.788,100.75,9.96,100.75,9.96 C100.75,9.96,95.152,9.96,95.152,9.96 C95.152,9.96,95.152,11.31,95.152,11.31 C95.152,11.31,102.424,11.31,102.424,11.31 C102.424,11.262,102.427,11.184,102.433,11.076 C102.439,10.968,102.442,10.866,102.442,10.77 C102.442,9.882,102.28,9.123,101.956,8.493 C101.632,7.863,101.161,7.38,100.543,7.044 C99.925,6.708,99.178,6.54,98.302,6.54 C97.426,6.54,96.664,6.717,96.016,7.071 C95.368,7.425,94.867,7.926,94.513,8.574 C94.159,9.222,93.982,9.984,93.982,10.86 C93.982,11.724,94.156,12.48,94.504,13.128 C94.852,13.776,95.347,14.28,95.989,14.64 C96.631,15,97.372,15.18,98.212,15.18 z M104.692,12.264 C104.692,12.264,103.558,13.416,103.558,13.416 C103.798,13.728,104.098,14.025,104.458,14.307 C104.818,14.589,105.232,14.817,105.7,14.991 C106.168,15.165,106.69,15.252,107.266,15.252 C108.166,15.252,108.883,15.015,109.417,14.541 C109.951,14.067,110.218,13.44,110.218,12.66 C110.218,12.156,110.104,11.748,109.876,11.436 C109.648,11.124,109.342,10.86,108.958,10.644 C108.574,10.428,108.148,10.23,107.68,10.05 C107.344,9.918,107.041,9.792,106.771,9.672 C106.501,9.552,106.285,9.417,106.123,9.267 C105.961,9.117,105.88,8.946,105.88,8.754 C105.88,8.526,105.97,8.352,106.15,8.232 C106.33,8.112,106.564,8.052,106.852,8.052 C107.26,8.052,107.656,8.154,108.04,8.358 C108.424,8.562,108.748,8.826,109.012,9.15 C109.012,9.15,110.092,7.998,110.092,7.998 C109.864,7.722,109.588,7.476,109.264,7.26 C108.94,7.044,108.577,6.87,108.175,6.738 C107.773,6.606,107.344,6.54,106.888,6.54 C106.384,6.54,105.913,6.621,105.475,6.783 C105.037,6.945,104.689,7.194,104.431,7.53 C104.173,7.866,104.044,8.286,104.044,8.79 C104.044,9.282,104.161,9.69,104.395,10.014 C104.629,10.338,104.929,10.599,105.295,10.797 C105.661,10.995,106.03,11.166,106.402,11.31 C106.774,11.442,107.098,11.571,107.374,11.697 C107.65,11.823,107.866,11.973,108.022,12.147 C108.178,12.321,108.256,12.528,108.256,12.768 C108.256,13.044,108.157,13.26,107.959,13.416 C107.761,13.572,107.488,13.65,107.14,13.65 C106.864,13.65,106.588,13.596,106.312,13.488 C106.036,13.38,105.766,13.224,105.502,13.02 C105.238,12.816,104.968,12.564,104.692,12.264 z M112.324,12.264 C112.324,12.264,111.19,13.416,111.19,13.416 C111.43,13.728,111.73,14.025,112.09,14.307 C112.45,14.589,112.864,14.817,113.332,14.991 C113.8,15.165,114.322,15.252,114.898,15.252 C115.798,15.252,116.515,15.015,117.049,14.541 C117.583,14.067,117.85,13.44,117.85,12.66 C117.85,12.156,117.736,11.748,117.508,11.436 C117.28,11.124,116.974,10.86,116.59,10.644 C116.206,10.428,115.78,10.23,115.312,10.05 C114.976,9.918,114.673,9.792,114.403,9.672 C114.133,9.552,113.917,9.417,113.755,9.267 C113.593,9.117,113.512,8.946,113.512,8.754 C113.512,8.526,113.602,8.352,113.782,8.232 C113.962,8.112,114.196,8.052,114.484,8.052 C114.892,8.052,115.288,8.154,115.672,8.358 C116.056,8.562,116.38,8.826,116.644,9.15 C116.644,9.15,117.724,7.998,117.724,7.998 C117.496,7.722,117.22,7.476,116.896,7.26 C116.572,7.044,116.209,6.87,115.807,6.738 C115.405,6.606,114.976,6.54,114.52,6.54 C114.016,6.54,113.545,6.621,113.107,6.783 C112.669,6.945,112.321,7.194,112.063,7.53 C111.805,7.866,111.676,8.286,111.676,8.79 C111.676,9.282,111.793,9.69,112.027,10.014 C112.261,10.338,112.561,10.599,112.927,10.797 C113.293,10.995,113.662,11.166,114.034,11.31 C114.406,11.442,114.73,11.571,115.006,11.697 C115.282,11.823,115.498,11.973,115.654,12.147 C115.81,12.321,115.888,12.528,115.888,12.768 C115.888,13.044,115.789,13.26,115.591,13.416 C115.393,13.572,115.12,13.65,114.772,13.65 C114.496,13.65,114.22,13.596,113.944,13.488 C113.668,13.38,113.398,13.224,113.134,13.02 C112.87,12.816,112.6,12.564,112.324,12.264 z"/>
        </defs>
        <use xlink:href="#17" style="fill:#032642;fill-opacity:1;fill-rule:nonzero;opacity:1;stroke:none;"/>
      </g>
    </defs>
    <use xlink:href="#16"/>
    <defs>
      <title>Text</title>
      <g id="18">
        <defs>
          <path id="19" d="M10.0402,0.959998 C10.0402,0.959998,2.55223,16.26,2.55223,16.26 C2.55223,16.26,4.51423,16.26,4.51423,16.26 C4.51423,16.26,11.9662,0.959998,11.9662,0.959998 z"/>
        </defs>
        <use xlink:href="#19" style="fill:#032642;fill-opacity:1;fill-rule:nonzero;opacity:1;stroke:none;"/>
      </g>
    </defs>
    <use xlink:href="#18"/>
  </g>
  <g id="20">
    <title>Layer 2</title>
  </g>
</svg>
